<?xml version="1.0" encoding="UTF-8"?>
<svg width="367px" height="162px" viewBox="0 0 367 162" version="1.1" xmlns="http://www.w3.org/2000/svg" xmlns:xlink="http://www.w3.org/1999/xlink">
    <title>buy-tag</title>
    <g id="buy-tag" stroke="none" stroke-width="1" fill="none" fill-rule="evenodd">
        <path d="M357,0 C362.522847,-1.01453063e-15 367,4.4771525 367,10 L367,152 C367,157.522847 362.522847,162 357,162 L81.5297322,162 C78.8861458,162 76.3501137,160.953217 74.4761933,159.088553 L3.12374174,88.0885534 C-0.791158203,84.1929914 -0.806834739,77.8613611 3.08872722,73.9464611 C3.10036981,73.9347607 3.11204135,73.9230892 3.12374174,73.9114466 L74.4761933,2.9114466 C76.3501137,1.04678265 78.8861458,4.85618944e-16 81.5297322,0 L357,0 Z M57.5,62 C46.7304474,62 38,70.7304474 38,81.5 C38,92.2695526 46.7304474,101 57.5,101 C68.2695526,101 77,92.2695526 77,81.5 C77,70.7304474 68.2695526,62 57.5,62 Z M115.355469,124 L142.71875,124 C160.707031,124 171.546875,114.976562 171.546875,100.09375 C171.546875,88.84375 163.8125,80.6992188 152.328125,79.4101562 L152.328125,78.9414062 C160.765625,77.5351562 167.386719,69.5078125 167.386719,60.5429688 C167.386719,47.7695312 157.542969,39.4492188 142.542969,39.4492188 L115.355469,39.4492188 C111.253906,39.4492188 108.792969,42.0273438 108.792969,46.2460938 L108.792969,117.203125 C108.792969,121.421875 111.253906,124 115.355469,124 Z M121.917969,75.4257812 L121.917969,50.171875 L139.378906,50.171875 C148.871094,50.171875 154.261719,54.5078125 154.261719,62.359375 C154.261719,70.7382812 147.992188,75.4257812 136.625,75.4257812 L121.917969,75.4257812 Z M121.917969,113.277344 L121.917969,85.4453125 L139.261719,85.4453125 C151.683594,85.4453125 158.128906,90.1328125 158.128906,99.2734375 C158.128906,108.414062 151.859375,113.277344 140.023438,113.277344 L121.917969,113.277344 Z M217.074219,125.40625 C238.285156,125.40625 251.292969,112.515625 251.292969,94.2929688 L251.292969,45.3085938 C251.292969,41.0898438 248.832031,38.5117188 244.789062,38.5117188 C240.6875,38.5117188 238.226562,41.0898438 238.226562,45.3085938 L238.226562,93.1796875 C238.226562,105.25 230.550781,113.746094 217.074219,113.746094 C203.597656,113.746094 195.980469,105.25 195.980469,93.1796875 L195.980469,45.3085938 C195.980469,41.0898438 193.460938,38.5117188 189.417969,38.5117188 C185.316406,38.5117188 182.855469,41.0898438 182.855469,45.3085938 L182.855469,94.2929688 C182.855469,112.515625 195.863281,125.40625 217.074219,125.40625 Z M296.9375,124.9375 C301.039062,124.9375 303.5,122.359375 303.5,118.140625 L303.5,89.3710938 L330.335938,48.765625 C331.332031,47.2421875 331.683594,45.8945312 331.683594,44.4296875 C331.683594,41.03125 328.871094,38.5117188 325.238281,38.5117188 C322.660156,38.5117188 321.019531,39.5664062 319.4375,42.203125 L297.230469,76.7734375 L296.820312,76.7734375 L274.613281,42.203125 C272.972656,39.5078125 271.449219,38.5117188 268.753906,38.5117188 C265.0625,38.5117188 262.25,41.03125 262.25,44.4882812 C262.25,45.953125 262.601562,47.3007812 263.597656,48.765625 L290.375,89.3710938 L290.375,118.140625 C290.375,122.359375 292.894531,124.9375 296.9375,124.9375 Z" fill="#000000"></path>
    </g>
</svg>