<svg height="180" viewBox="0 0 180 180" width="180" xmlns="http://www.w3.org/2000/svg"><path d="m25.4573356 145h130.9804024c7.121381 0 12.662103-2.100002 16.622167-6.300007 3.960063-4.199993 5.940095-10.499972 5.940095-18.899917v-80.4002216c0-8.3999447-2.113133-14.6832803-6.3394-18.8500067-4.226267-4.16659-10.598926-6.2498849-19.117976-6.2498849h-74.7747058c-2.4624827 0-4.5756161-.3666605-6.3394003-1.0999814-1.7636479-.7333209-3.6105099-1.8666847-5.540586-3.40009142l-4.9916184-3.99995091c-2.5956525-2.13333446-5.1414174-3.63335872-7.6372948-4.50007278-2.495741-.86657753-5.6404293-1.29986629-9.4340647-1.29986629h-22.3625077c-7.0548642 0-12.56232818 2.06663789-16.52239178 6.19991368-3.96003635 4.13327582-5.94005452 10.36664012-5.94005452 18.70009312v94.9000692c0 8.399945 2.129749 14.699924 6.38924701 18.899917 4.25952529 4.200005 10.61555479 6.300007 19.06808859 6.300007zm.1997547-14.499999c-3.5940852 0-6.372795-.950006-8.3361295-2.850019-1.9633344-1.899998-2.9450017-4.749969-2.9450017-8.549913v-93.5000555c0-3.6667411.9650381-6.4501111 2.8951142-8.35011 1.930076-1.8999988 4.6920885-2.8499983 8.2860374-2.8499983h15.4741397c2.4624827 0 4.5756161.3666605 6.3394004 1.0999814 1.7636479.7333209 3.6105099 1.8666847 5.540586 3.4000914l4.9916184 3.9999509c2.5291357 2.1333345 5.0582714 3.6333587 7.5874072 4.5000728 2.5289994.8665775 5.6903168 1.2998663 9.4839522 1.2998663h78.3686544c3.593949 0 6.372659.9666565 8.336129 2.8999695 1.963335 1.9334496 2.945002 4.8001732 2.945002 8.600171v79.0000035c0 3.733315-.981667 6.549972-2.945002 8.44997-1.96347 1.900013-4.74218 2.850019-8.336129 2.850019zm-16.87180921-73.3001499h161.32962191v-13.4998088h-161.32962191z" transform="translate(0 17)"/></svg>