<svg height="180" viewBox="0 0 180 180" width="180" xmlns="http://www.w3.org/2000/svg"><path d="m28.374266 137c5.2610647 0 10.0492547-1.278429 14.36457-3.835286 4.3151941-2.556854 7.7585481-6.020505 10.330062-10.390951 2.5713927-4.370431 3.8570891-9.231402 3.8570891-14.582911 0-2.794799.295577-4.861123.886731-6.198973.5910329-1.33785 1.9210386-2.5717018 3.9900171-3.7015554l118.1972648-62.8807745c-1.301435-5.8271853-4.803807-9.3502754-10.507118-10.5692703-5.704884-1.218995-13.315976-.10412-22.833277 3.3446248l-59.3199977 21.1387234c-4.3743943 1.5459681-7.6551598 3.5082333-9.8422964 5.8867956-2.1871366 2.3784405-3.9013985 5.5893534-5.1427856 9.6327388l-1.3300057 5.083976c-.591154 1.9622043-1.4926547 3.5230901-2.7045023 4.6826575-1.2118475 1.1594456-3.2955957 2.5121524-6.2512446 4.0581205l-8.8669468 4.6380868c-1.6551828.773045-3.1034677 1.1595674-4.3448548 1.1595674-1.9506992 0-3.6354215-.4013793-5.0541669-1.204138s-3.2512259-1.6203743-5.4974416-2.4528467c-2.2463368-.8324724-5.5567023-1.2487087-9.9310966-1.2487087-5.2610648 0-10.0344245 1.2784225-14.3200791 3.8352673-4.28577569 2.5568449-7.69959014 6.0056506-10.24144337 10.3464172-2.54182902 4.3407665-3.81274353 9.1571973-3.81274353 14.4492913 0 5.351509 1.27091451 10.197617 3.81274353 14.538322 2.54185323 4.340711 5.95566768 7.804361 10.24144337 10.390952 4.2856546 2.586583 9.0590143 3.879874 14.3200791 3.879874zm0-12.754547c-4.3151942 0-8.0097553-1.560874-11.0836835-4.682621-3.0739281-3.121735-4.6108922-6.912395-4.6108922-11.37198 0-2.913654.7093727-5.589476 2.1281181-8.027465 1.4187453-2.4378685 3.3103655-4.370359 5.6748604-5.797472 2.364495-1.427113 4.9950273-2.1406695 7.8915972-2.1406695 2.9556489 0 5.6305511.7135565 8.0247067 2.1406695 2.3940344 1.427113 4.3004243 3.3596035 5.7191697 5.797472 1.4187454 2.437989 2.1281181 5.113811 2.1281181 8.027465 0 4.459585-1.5369641 8.250245-4.6108922 11.37198-3.0739282 3.121747-6.8276289 4.682621-11.2611023 4.682621zm60.6501846-53.60482c-1.5961037 0-3.014849-.5945797-4.2562361-1.7837391-1.2413871-1.1892811-1.8620806-2.6461079-1.8620806-4.3704803 0-1.7839217.6206935-3.2704622 1.8620806-4.4596216 1.2413871-1.1892812 2.6601324-1.7839217 4.2562361-1.7839217 1.7142619 0 3.1920863.5946405 4.4334734 1.7839217 1.2413871 1.1891594 1.8620806 2.6756999 1.8620806 4.4596216 0 1.7243724-.6206935 3.1811992-1.8620806 4.3704803-1.2413871 1.1891594-2.7192115 1.7837391-4.4334734 1.7837391zm-60.6501846-13.2003996c3.3103655 0 5.970498-.2378928 7.9803973-.7136783 2.0097784-.4756638 3.6796704-1.0405297 5.0096761-1.6945978 1.3301267-.6540681 2.556744-1.218934 3.6798519-1.6945977 1.1231078-.4757856 2.3940344-.7136783 3.8127798-.7136783 1.2413871 0 2.689672.3865224 4.3448548 1.1595673l9.8422964 5.1731173c.7685123.4757855 1.477885.8920217 2.128118 1.2487087.6502331.3568087 1.2413871.7136174 1.773462 1.0704261h.4432747c.9457496-3.3298898 2.1871366-6.065139 3.7241613-8.2057477 1.5369035-2.1406086 3.5762819-3.9839578 6.1181351-5.5300477v-.4458891l-14.3643884-7.6705346c-2.5418532-1.3676855-4.1674964-2.7353101-4.8769297-4.1028738-.7093121-1.3676855-1.0639682-3.5380688-1.0639682-6.5111498 0-5.3515216-1.2856964-10.2125226-3.8570891-14.5830029-2.5715139-4.37035858-6.0148679-7.83396029-10.330062-10.39080515-4.3153153-2.55696663-9.1035053-3.83544995-14.36457-3.83544995-5.2610648 0-10.0344245 1.2933402-14.3200791 3.8800206-4.28577569 2.58655862-7.69959014 6.05016033-10.24144337 10.3908051-2.54182902 4.3407666-3.81274353 9.1869107-3.81274353 14.5384323 0 5.292094 1.27091451 10.1085244 3.81274353 14.4492909 2.54185323 4.3406448 5.95566768 7.7893897 10.24144337 10.3462345 4.2856546 2.5569666 9.0590143 3.83545 14.3200791 3.83545zm0-12.6653693c-2.8965699 0-5.5271022-.7284134-7.8915972-2.1852401-2.3644949-1.4568268-4.2561151-3.3893782-5.6748604-5.7976543-1.4187454-2.4081543-2.1281181-5.0690582-2.1281181-7.9827117 0-4.5190492 1.5369641-8.3246027 4.6108922-11.4166606 3.0739282-3.0919361 6.7684893-4.6379042 11.0836835-4.6379042 4.4334734 0 8.1871741 1.5459681 11.2611023 4.6379042 3.0739281 3.0920579 4.6108922 6.8976114 4.6108922 11.4166606 0 2.9136535-.7093727 5.5745574-2.1281181 7.9827117-1.4187454 2.4082761-3.3251353 4.3408275-5.7191697 5.7976543-2.3941556 1.4568267-5.0690578 2.1852401-8.0247067 2.1852401zm118.285339 64.2186249-52.9356435-19.71155v-.8919608l31.0343135-16.4114953 55.241725 29.5227541c-1.301435 5.946283-4.78928 9.573494-10.463535 10.88163-5.67486 1.308136-13.30048.178343-22.87686-3.389378z" transform="translate(0 22)"/></svg>