<svg height="180" viewBox="0 0 180 180" width="180" xmlns="http://www.w3.org/2000/svg"><path d="m83.5236568 48.9458521-11.1997293 11.3635083c4.4925655.6313275 8.2574281 1.6414128 11.2945879 3.0302559 3.0372893 1.388843 5.6315813 3.1880555 7.7828758 5.3976373 4.2394796 4.2297524 7.0711124 8.8855831 8.4948985 13.967492 1.4236563 5.0820382 1.4394663 10.1482382.0474293 15.1986001-1.392037 5.0504913-4.1761757 9.6590013-8.3524162 13.8255303l-24.2977967 24.242145c-4.2394796 4.229726-8.8902075 7.039024-13.9521837 8.427893-5.0621057 1.388869-10.1399565 1.388869-15.2335522 0-5.0937253-1.388869-9.7603277-4.198167-13.9998073-8.427893-4.2394796-4.292911-7.0710476-8.980321-8.4947041-14.06223-1.4236565-5.082038-1.4394663-10.148238-.0474293-15.1986 1.3920369-5.050492 4.2077952-9.6590017 8.4472748-13.8255309l12.8132973-12.7838983c-1.2023198-2.7778154-1.9616421-5.6502717-2.277967-8.6173691-.316325-2.9670973-.316325-5.776395 0-8.4278932l-20.7860848 20.7381989c-6.13768823 6.0606411-10.21893407 12.7682541-12.24373751 20.1228386-2.02481639 7.354714-2.02481639 14.709428 0 22.064142 2.02480344 7.354662 6.1377336 14.093809 12.33879051 20.217441 6.1376882 6.123645 12.8923461 10.211339 20.2639737 12.263082 7.3714979 2.051731 14.7430607 2.051731 22.1146883 0 7.3716275-2.051743 14.0946659-6.107871 20.1691151-12.168383l25.4366831-25.473175c6.074449-6.060512 10.139956-12.752287 12.196522-20.075324 2.056436-7.3231672 2.056436-14.6778812 0-22.0641421-2.056566-7.386261-6.153692-14.1411944-12.291381-20.2648002-2.0880552-2.0832646-4.571614-3.914024-7.4506761-5.4922783s-6.4699525-2.9040034-10.7726711-3.9772473zm-7.0236183 62.0255089 11.1048706-11.2686735c-4.4291968-.6313276-8.1624399-1.6414129-11.1997292-3.030256-3.0371598-1.388843-5.6314518-3.1880555-7.7828759-5.3976373-4.2394796-4.2297524-7.0710476-8.8856477-8.4947041-13.9676859-1.4237861-5.0819089-1.4395959-10.148109-.0474293-15.1986002 1.392037-5.0503619 4.1761109-9.658872 8.3522218-13.8255305l24.2977967-24.2420475c4.1762405-4.2297524 8.8112239-7.0390502 13.9049489-8.4278932 5.093596-1.3888431 10.187256-1.3888431 15.280981 0 5.093726 1.388843 9.760263 4.1981408 13.999613 8.4278932 4.23948 4.2928464 7.071113 8.9802887 8.494899 14.0623269 1.423656 5.0819089 1.423656 10.1481089 0 15.1986001-1.423786 5.050362-4.223735 9.6588721-8.399846 13.8255306l-12.813297 12.7838983c1.20219 2.7776861 1.961448 5.6501425 2.277773 8.6173691.316454 2.9670973.316454 5.7763951 0 8.4278932l20.786084-20.7383928c6.07445-6.0605118 10.139892-12.7681248 12.196328-20.1228387 2.056436-7.354714 2.056436-14.7093633 0-22.063948-2.056436-7.354714-6.153498-14.0938739-12.291186-20.2174797-6.137818-6.18682912-12.892476-10.29032898-20.263974-12.3104996-7.371627-2.02017062-14.743255-2.00439713-22.114883.04732048-7.3716271 2.0517176-14.0946655 6.10783234-20.1691146 12.16834422l-25.4366831 25.4731556c-6.0744492 6.0605118-10.1398917 12.7523513-12.1963276 20.0755183-2.056436 7.3230377-2.056436 14.677687 0 22.0639479 2.0564359 7.386261 6.153498 14.1411944 12.2911862 20.2648 2.0881851 2.083394 4.5559341 3.914218 7.4032471 5.492472 2.8474426 1.578255 6.4541427 2.872392 10.8201005 3.882413z" transform="translate(10 11)"/></svg>