<svg height="180" viewBox="0 0 180 180" width="180" xmlns="http://www.w3.org/2000/svg"><g fill="none" fill-rule="evenodd"><path d="m21.0011173 117c2.6592179 0 5.1569833-.41934 7.4932961-1.25802 2.3363129-.83868 4.4351955-2.03147 6.2966481-3.578369 1.8614525-1.546899 3.3810055-3.382676 4.5586592-5.507332h.2279329v9.281393h12.4223464v-40.5362055c0-3.9138405-.9877095-7.3244729-2.9631285-10.2318973s-4.7486033-5.162542-8.3195531-6.7653529c-3.5709497-1.6028109-7.8067039-2.4042163-12.7072625-2.4042163-4.9005587 0-9.1363129.7827681-12.7072626 2.3483043s-6.3631285 3.6995112-8.37653632 6.4019248c-2.01340782 2.7024137-3.17206704 5.7496181-3.47597765 9.1416132l-.05698324.6150321h11.62458101l.1139665-.503208c.5318436-2.3483043 1.8709497-4.2679499 4.0173184-5.7589368s4.9860335-2.2364803 8.5189944-2.2364803c3.8368715 0 6.7810056.9225481 8.8324023 2.7676444 2.0513966 1.8450962 3.0770949 4.3890926 3.0770949 7.631989l-.000547 4.4045243-16.2966597.9630284c-7.0659218.4100214-12.54581 2.1153376-16.43966478 5.1159487-3.89385475 3.000611-5.84078212 7.0728689-5.84078212 12.2167736v.111824c0 3.5038193.83575419 6.5976173 2.50726257 9.2813933s4.00782123 4.771158 7.00893853 6.262145 6.4960894 2.23648 10.4849162 2.23648zm2.456399-11c-3.1590414 0-5.6917211-.747672-7.5980392-2.243017s-2.8594771-3.532753-2.8594771-6.1122231v-.1121509c0-2.5047029.953159-4.5140727 2.8594771-6.0281095s4.6205519-2.3832061 8.1427015-2.6075078l13.9972985-.8969917.0005229 4.5979705c0 2.5420865-.6354394 4.8318335-1.9063181 6.8692411-1.2708787 2.0374074-3.0047204 3.6355574-5.201525 4.7944494-2.1968047 1.158893-4.6750182 1.738339-7.4346406 1.738339zm70.703774 11c5.0053764 0 9.3709677-1.250911 13.0967747-3.752732 3.725806-2.501822 6.614247-6.039845 8.665322-10.614071 2.051075-4.5742261 3.076613-9.9979511 3.076613-16.2711751v-.056011c0-6.273224-1.034946-11.6876138-3.104839-16.2431694-2.069892-4.5555555-4.948924-8.0749089-8.637096-10.5580601-3.688173-2.4831512-8.0161295-3.7247268-12.9838715-3.7247268-4.2150537 0-7.9502688.9895265-11.2056451 2.9685793-3.2553764 1.9790528-5.7674731 4.704918-7.5362903 8.1775956h-.2822581v-31.9262295h-12.25v80.82377h12.25v-9.969945h.2822581c1.7688172 3.435337 4.2432795 6.151867 7.4233871 8.14959 3.1801075 1.997723 6.9153225 2.996585 11.2056451 2.996585zm-3.1035286-10c-3.1191335 0-5.8916967-.844676-8.3176895-2.534028s-4.322503-4.071528-5.6895307-7.1465276c-1.3670277-3.075-2.0505415-6.6814814-2.0505415-10.8194444v-.0569444c0-4.137963.6931408-7.7349537 2.0794224-10.7909723 1.3862816-3.0560185 3.2827918-5.4287037 5.6895307-7.1180555 2.4067388-1.6893519 5.1696751-2.5340278 8.2888086-2.5340278 3.2731649 0 6.1034898.8256944 8.4909748 2.4770833 2.3874845 1.6513889 4.2262335 4.0050926 5.5162455 7.0611111 1.290012 3.0560186 1.935018 6.6909723 1.935018 10.9048612v.0569444c0 4.2138889-.645006 7.8678241-1.935018 10.9618056-1.290012 3.0939814-3.128761 5.4571754-5.5162455 7.0895834-2.387485 1.632407-5.2178099 2.448611-8.4909748 2.448611zm63.2468603 10c4.802521 0 9.047269-.92086 12.734244-2.76258 3.686974-1.84172 6.655462-4.334553 8.905462-7.4785 2.25-3.143946 3.60189-6.669259 4.055672-10.5759374v-.3906679h-11.798319l-.056723.4464776c-.756303 3.1625496-2.297269 5.7204937-4.622899 7.6738337-2.32563 1.953339-5.379202 2.930009-9.160714 2.930009-3.176471 0-5.946429-.799939-8.309874-2.399817-2.363446-1.599878-4.206933-3.915981-5.530463-6.9483075-1.323529-3.0323269-1.985294-6.6878621-1.985294-10.9666057v-.0558096c0-4.1671242.652311-7.7761513 1.956933-10.8270815 1.304622-3.0509301 3.138656-5.4042391 5.502101-7.0599268s5.114496-2.4835315 8.253151-2.4835315c4.008404 0 7.156513 1.0510826 9.444328 3.1532479s3.753151 4.5856969 4.396008 7.4505947l.113446.5022873h11.741596l-.056722-.4464776c-.340337-3.6834401-1.569328-7.1064349-3.686975-10.2689845-2.117647-3.1625495-5.038866-5.7018908-8.763656-7.6180237-3.72479-1.916133-8.139706-2.8741995-13.244748-2.8741995-5.672268 0-10.62605 1.237115-14.861344 3.7113449-4.235294 2.47423-7.515756 5.9809393-9.841387 10.5201281-2.32563 4.5391888-3.488445 9.915523-3.488445 16.1290028v.0558097c0 6.2506861 1.143908 11.6642269 3.431723 16.2406225 2.287815 4.576395 5.558823 8.111009 9.813025 10.603842s9.27416 3.73925 15.059874 3.73925z" fill="#000" fill-rule="nonzero"/><path d="m1 139.245453 179-.245453" stroke="#000" stroke-dasharray="20" stroke-width="14"/></g></svg>