<svg height="180" viewBox="0 0 180 180" width="180" xmlns="http://www.w3.org/2000/svg"><path d="m0 68.944238c0 9.4672051 1.80605868 18.3742813 5.41817605 26.7212288 3.61190814 8.3470952 8.61035625 15.6823482 14.99534425 22.0057572 6.384988 6.323557 13.7732673 11.255932 22.1648377 14.797124 8.3915705 3.541044 17.4034823 5.311566 27.0357355 5.311566 7.3699723 0 14.4116166-1.083996 21.1249327-3.251989 6.7133162-2.16814 12.8792938-5.203447 18.4979338-9.105922l40.717693 40.434327c1.167455 1.084026 2.444453 1.878973 3.830993 2.384843 1.38639.505885 2.80932.758827 4.268788.758827 3.210652 0 5.837576-1.04789 7.880772-3.14367 2.043196-2.095795 3.064794-4.733603 3.064794-7.913423 0-1.517639-.273632-2.944942-.820895-4.28191s-1.29523-2.51133-2.243899-3.523084l-40.498683-40.217468c4.305328-5.709185 7.661986-12.0507245 10.069974-19.0246202 2.407989-6.9738956 3.611983-14.2910912 3.611983-21.9515868 0-9.5394319-1.806029-18.4646389-5.418086-26.775621-3.612058-8.310834-8.592274-15.6280296-14.940648-21.9515868-6.348524-6.3234091-13.736803-11.27376647-22.1648377-14.85107196-8.4281842-3.57730549-17.4217891-5.36595824-26.9808148-5.36595824-9.6322532 0-18.644165 1.78865275-27.0357355 5.36595824-8.3915704 3.57730549-15.7798497 8.52766286-22.1648377 14.85107196-6.384988 6.3235572-11.38343611 13.6407528-14.99534425 21.9515868-3.61211737 8.3109821-5.41817605 17.2361891-5.41817605 26.775621zm16.8562339 0c0-7.2268379 1.3499262-14.0020354 4.0497786-20.3255926 2.7000018-6.3235572 6.4762235-11.8701568 11.3286649-16.6397988 4.8525909-4.76979 10.4713804-8.5096801 16.8563684-11.2196703 6.3848386-2.7101382 13.2258545-4.0652073 20.5230477-4.0652073 7.2970437 0 14.1197528 1.3550691 20.4681271 4.0652073 6.3485237 2.7099902 11.9490064 6.4498803 16.8014474 11.2196703 4.852591 4.769642 8.64712 10.3162416 11.383586 16.6397988 2.736317 6.3235572 4.104475 13.0987547 4.104475 20.3255926 0 7.226838-1.368158 13.9839048-4.104475 20.2712005-2.736466 6.2874437-6.530995 11.8340435-11.383586 16.6397985-4.852441 4.805904-10.4529237 8.563925-16.8014474 11.274063-6.3483743 2.70999-13.1710834 4.064985-20.4681271 4.064985-7.2971932 0-14.1382091-1.354995-20.5230477-4.064985-6.384988-2.710138-12.0037775-6.468159-16.8563684-11.274063-4.8524414-4.805755-8.6286631-10.3523548-11.3286649-16.6397985-2.6998524-6.2872957-4.0497786-13.0443625-4.0497786-20.2712005z" transform="translate(10 11)"/></svg>