<svg height="180" viewBox="0 0 180 180" width="180" xmlns="http://www.w3.org/2000/svg"><path d="m0 150.912883c0 3.76323 1.05802571 6.448806 3.17407713 8.056729 2.11607938 1.607922 4.53928873 2.411883 7.26962807 2.411883 1.5698997 0 3.0715793-.376323 4.5050389-1.128969s3.0376091-1.676347 4.8124485-2.771104c4.5050389-2.668459 9.2319327-4.789547 14.1806815-6.363264 4.9488886-1.573717 9.9147622-2.326363 14.897621-2.257938 5.5290385 0 10.938622 1.009229 16.2287506 3.027687 5.2901285 2.018458 10.1536022 5.080357 14.5904211 9.185697 2.0478594 1.847397 3.8737939 3.130312 5.4778036 3.848746 1.6041495.718433 3.2252841 1.07765 4.8634038 1.07765 1.7064795 0 3.3617941-.359217 4.9659436-1.07765 1.6041494-.718434 3.3959739-2.001349 5.3754732-3.848746 4.436819-4.10534 9.300293-7.167239 14.590421-9.185697 5.290129-2.018458 10.699712-3.027687 16.228751-3.027687 5.051079-.068425 10.051062.684221 14.999951 2.257938 4.948749 1.573717 9.641533 3.694805 14.078351 6.363264 1.77484 1.094757 3.378989 2.018458 4.812449 2.771104s2.969249 1.128969 4.607369 1.128969c2.662119 0 5.051219-.803961 7.167298-2.411883 2.116079-1.607923 3.174119-4.293499 3.174119-8.056729v-109.2020559c0-.684109-.051235-1.3511923-.153705-2.00125-.10233-.6500576-.358295-1.3171409-.767895-2.0012499-2.389099-4.2422603-5.921513-8.1594917-10.597242-11.7516944-4.675729-3.5920625-10.221822-6.4828503-16.63828-8.6723633-6.416319-2.189513-13.447037-3.2842695-21.092155-3.2842695-8.600617 0-16.518685 1.5052639-23.754203 4.5157918-7.2355185 3.0105278-12.9010669 6.9105935-16.9966458 11.700197-4.0954391-4.7896035-9.7609177-8.6896692-16.9964357-11.700197-7.235518-3.0105279-15.153586-4.5157918-23.7542038-4.5157918-7.6451178 0-14.6758359 1.0947565-21.0921543 3.2842695-6.4164582 2.189513-11.9625517 5.0803008-16.6382805 8.6723633-4.67572882 3.5922027-8.2081429 7.5094341-10.59724223 11.7516944-.40958584.684109-.66557176 1.3511923-.76795773 2.0012499-.10239996.6500577-.15359994 1.317141-.15359994 2.00125zm15-7.145838v-99.6634877c3.2136492-4.5207354 7.9828705-8.1682139 14.3076638-10.9424354 6.3247933-2.7740813 13.0769715-4.1611219 20.2565348-4.1611219 7.3845735 0 14.1366818 1.4213396 20.2563247 4.2640189 6.1196429 2.842539 10.5128018 6.5927742 13.1794767 11.2507057v100.4852754c-4.1709243-3.287879-9.1965486-5.890788-15.0768727-7.808727-5.8803241-1.917938-11.9999671-2.876908-18.3589287-2.876908-6.5641121 0-12.8718212.839098-18.9231273 2.517295-6.0513062 1.678196-11.2649966 3.989991-15.6410713 6.935385zm83 1.232955v-100.4852754c2.666675-4.6579315 7.059834-8.4081667 13.179477-11.2507057 6.119643-2.8426793 12.871751-4.2640189 20.256324-4.2640189 7.179564 0 13.931742 1.3870406 20.256535 4.1611219 6.324794 2.7742215 11.094015 6.4217 14.307664 10.9424354v99.6634877c-4.307738-2.945394-9.504344-5.257189-15.589819-6.935385-6.085474-1.678197-12.410267-2.517295-18.97438-2.517295-6.290484 0-12.393043.95897-18.307676 2.876908-5.914492 1.917939-10.957201 4.520848-15.128125 7.808727z"/></svg>