<svg height="160" viewBox="0 0 160 160" width="160" xmlns="http://www.w3.org/2000/svg"><g fill="none" transform="translate(14)"><path d="m31.3964 40.3323h19.6289l44.2382 44.336v43.3105h15.723c6.705333 0 11.783333-1.749667 15.234-5.249 3.450667-3.499347 5.176-8.601883 5.176-15.30761v-86.86519c0-6.706-1.725333-11.80866667-5.176-15.308s-8.528667-5.249-15.234-5.249h-59.1799c-6.6406 0-11.7024667 1.74166667-15.1856 5.225-3.4830667 3.48333333-5.2246 8.594-5.2246 15.332zm35.5469-17.9687c-1.3672 0-2.417-.3987667-3.1494-1.1963s-1.0986-1.7171333-1.0986-2.7588v-1.3672c0-.9114667.3499333-1.7985667 1.0498-2.6613.6998667-.8626667 1.7659333-1.294 3.1982-1.294h28.9552c1.3993333 0 2.449.4313333 3.149 1.294.7.8627333 1.05 1.7498333 1.05 2.6613v1.3672c0 1.0416667-.3663333 1.9612667-1.099 2.7588-.732.7975333-1.7653333 1.1963-3.1 1.1963z" fill="#000" opacity=".798363"/><path d="m0 139.6976c0 6.738267 1.72523333 11.857067 5.1757 15.3564 3.45053333 3.499333 8.5286667 5.249 15.2344 5.249h59.2285c6.6732667 0 11.7352333-1.7578 15.1859-5.2734 3.45-3.5156 5.175-8.626267 5.175-15.332v-48.877c0-2.7018-.1543333-5.0211333-.463-6.958-.3093333-1.9368667-.9116667-3.6946667-1.807-5.2734-.8953333-1.5788-2.1893333-3.2145333-3.882-4.9072l-34.8143-35.2051c-1.6276667-1.6602-3.2308667-2.9378667-4.8096-3.833-1.5788-.8952-3.3040667-1.5055667-5.1758-1.8311s-4.0445667-.4883-6.5185-.4883h-22.1192c-6.6732 0-11.7432 1.7415333-15.21 5.2246-3.46673333 3.4831333-5.2001 8.5775333-5.2001 15.2832zm12.3535-.9278v-84.9121c0-2.9622.7649667-5.2408333 2.2949-6.8359s3.8574-2.3926 6.9824-2.3926h19.7266v34.2285c0 4.5898667 1.1149 7.9915667 3.3447 10.2051s5.6233667 3.3203 10.1807 3.3203h32.8127v46.3867c0 2.962267-.7733333 5.2328-2.32 6.8116-1.5459333 1.578733-3.8814 2.3681-7.0064 2.3681h-56.7871c-3.0924667 0-5.4036667-.789367-6.9336-2.3681-1.5299333-1.5788-2.2949-3.849333-2.2949-6.8116zm43.6035-57.0312c-1.3997333 0-2.417-.3092333-3.0518-.9277-.6347333-.6185333-.9521-1.6276667-.9521-3.0274v-30.664l34.2774 34.6191z" fill="#212121"/></g></svg>