<svg xmlns="http://www.w3.org/2000/svg" xmlns:xlink="http://www.w3.org/1999/xlink" width="208" height="163" viewBox="0 0 208 163">
    <defs>
        <filter id="xyofmaqffa" width="109.3%" height="119.7%" x="-4.7%" y="-9.9%" filterUnits="objectBoundingBox">
            <feGaussianBlur in="SourceGraphic" stdDeviation="2.72"/>
        </filter>
        <filter id="ifuxqpgzjb" width="99.9%" height="100.2%" x=".1%" y="0%" filterUnits="objectBoundingBox">
            <feGaussianBlur in="SourceGraphic"/>
        </filter>
        <filter id="qkm699j1te" width="101.2%" height="101.3%" x="-.6%" y="-.7%" filterUnits="objectBoundingBox">
            <feGaussianBlur in="SourceAlpha" result="shadowBlurInner1" stdDeviation=".5"/>
            <feOffset dy="-1" in="shadowBlurInner1" result="shadowOffsetInner1"/>
            <feComposite in="shadowOffsetInner1" in2="SourceAlpha" k2="-1" k3="1" operator="arithmetic" result="shadowInnerInner1"/>
            <feColorMatrix in="shadowInnerInner1" values="0 0 0 0 0.542171556 0 0 0 0 0.492440629 0 0 0 0 0.452034251 0 0 0 1 0"/>
        </filter>
        <filter id="9g9nfb6lnh" width="148.8%" height="155.4%" x="-24.4%" y="-27.7%" filterUnits="objectBoundingBox">
            <feGaussianBlur in="SourceGraphic" stdDeviation="8.148"/>
        </filter>
        <filter id="ky9aipfu6i" width="188.2%" height="219%" x="-44.1%" y="-59.5%" filterUnits="objectBoundingBox">
            <feGaussianBlur in="SourceGraphic" stdDeviation="15.469"/>
        </filter>
        <path id="wrqsdxox9c" d="M164.718 104.323V0L81.286 37.145.592 1.319v103.076c0 2.356 1.326 4.511 3.429 5.573l72.331 36.53c2.896 1.462 6.308 1.49 9.228.076l75.616-36.632c2.154-1.043 3.522-3.226 3.522-5.619z"/>
        <path id="bbnla59fzf" d="M164.718 105.193V0l-83.77 33.333L.591 1.283V105.25c0 1.832 1.031 3.508 2.667 4.334l73.093 36.915c2.896 1.462 6.308 1.49 9.228.076l76.399-37.01c1.675-.812 2.739-2.51 2.739-4.371z"/>
        <path id="2yeyi3l5ij" d="M132.734 72.391l73.13-36.258c1.373-.68 1.935-2.346 1.254-3.719-.048-.097-.102-.19-.16-.281L186.04 0l-83.602 37.145 25.099 33.99c1.198 1.623 3.389 2.153 5.197 1.256z"/>
        <linearGradient id="5seyln40hg" x1="50%" x2="48.104%" y1="-17.168%" y2="110.942%">
            <stop offset="0%" stop-color="#826248"/>
            <stop offset="100%" stop-color="#6F513B"/>
        </linearGradient>
    </defs>
    <g fill="none" fill-rule="evenodd">
        <g>
            <g>
                <g>
                    <path fill="#3C3434" d="M18.678 112.873l77.404 39.188c4.075 2.063 8.88 2.096 12.983.089l80.258-39.264c1.032-.505 1.46-1.751.955-2.784-.216-.441-.582-.792-1.032-.99L102.55 71.004l-83.794 38.118c-1.047.476-1.509 1.71-1.033 2.756.196.43.532.781.954.995z" filter="url(#xyofmaqffa)" opacity=".124" transform="translate(-636 -155) translate(20 18) translate(616 137.55)"/>
                    <path fill="#3C3434" d="M22.917 110.284l73.752 37.73c3.524 1.803 7.693 1.829 11.238.07l76.172-37.796c1.03-.51 1.45-1.76.939-2.79-.217-.436-.58-.783-1.026-.98L102.636 70.7 23.01 106.533c-1.048.472-1.516 1.704-1.044 2.752.194.432.53.784.95 1z" filter="url(#ifuxqpgzjb)" opacity=".186" transform="translate(-636 -155) translate(20 18) translate(616 137.55)"/>
                    <g transform="translate(-636 -155) translate(20 18) translate(616 137.55) translate(21.152)">
                        <mask id="xax67b2bjd" fill="#fff">
                            <use xlink:href="#wrqsdxox9c"/>
                        </mask>
                        <use fill="#BAA087" xlink:href="#wrqsdxox9c"/>
                        <path fill="#C7A782" d="M0.317 108.71L81.349 149.49 81.349 36.021 0.317 0z" mask="url(#xax67b2bjd)"/>
                        <g opacity=".223" style="mix-blend-mode:multiply" fill="#000" mask="url(#xax67b2bjd)">
                            <use filter="url(#qkm699j1te)" xlink:href="#bbnla59fzf"/>
                        </g>
                        <path fill="url(#5seyln40hg)" d="M46.573 75.418c.415-.222 1.09.14 1.503.797l6.897 10.973c.417.662.418 1.377.007 1.596l-6.704 3.56c-.415.22-1.093-.14-1.517-.807l-6.92-10.917c-.42-.666-.428-1.384-.007-1.608l6.74-3.594zm-9.58 5.18c.42-.218 1.093.146 1.504.814l6.738 10.934c.412.668.41 1.388-.004 1.608l-6.723 3.573c-.417.22-1.096-.142-1.518-.811l-6.9-10.953c-.42-.668-.42-1.386.004-1.604l6.9-3.561zm-.225 20.866c.428-.213 1.118.145 1.54.798l7.088 10.975c.423.654.424 1.361 0 1.58l-6.947 3.577c-.425.219-1.116-.13-1.546-.782l-7.27-11.047c-.427-.65-.421-1.352.007-1.564l7.128-3.537zM26.5 85.75c.418-.222 1.094.14 1.504.799L34.86 97.55c.414.664.411 1.376-.008 1.593l-6.881 3.535c-.421.216-1.097-.148-1.51-.814L19.707 90.96c-.411-.665-.408-1.383.015-1.608l6.78-3.603zm20.244 10.554c.416-.223 1.091.14 1.504.8l6.895 11.018c.417.664.418 1.377 0 1.592l-6.84 3.52c-.419.214-1.094-.15-1.51-.816L40 101.519c-.413-.665-.414-1.383.007-1.608l6.738-3.608zm-10.01-36.588c.415-.221 1.087.14 1.496.798l6.833 10.983c.413.663.41 1.378-.003 1.597l-6.722 3.55c-.416.219-1.095-.141-1.518-.806l-6.899-10.883c-.42-.664-.423-1.382-.005-1.604l6.818-3.635zm-9.777 5.182c.418-.222 1.093.14 1.503.797l6.857 10.973c.415.662.413 1.377-.002 1.596l-6.742 3.561c-.418.22-1.096-.14-1.518-.808l-6.88-10.917c-.419-.666-.422-1.384.002-1.608l6.78-3.594z" mask="url(#xax67b2bjd)" opacity=".397" transform="rotate(-3 37.43 89.055)"/>
                        <path fill="#826248" opacity=".225" style="mix-blend-mode:multiply" d="M81.331 31.039L66.064 90.382 -18.757 49.69 15.171 2.216z" filter="url(#9g9nfb6lnh)" mask="url(#xax67b2bjd)"/>
                        <g fill="#614C3D" mask="url(#xax67b2bjd)" opacity=".624">
                            <g>
                                <path d="M27.604 63.408c-.865.12-1.56.13-2.22.051.138-.204.128-.498-.082-.482.095-.126.214-.089.19-.187-.152.052-.167.053-.184.057-.001.283.15.306.059.61-.828-.102-1.598-.345-2.286-.73l-.443-.248c.136-.118.017-.2.05-.304-.153.093-.2.08-.242.067-.048.03-1.397-.68-4.046-2.13-.007-.075-.086-.119-.234-.131-.026-.045-.125-.101-.298-.167-.007-.16-.072-.297-.119-.346.03.105-.084.071-.183.178L3.11 51.569c-.69-.386-1.264-.895-1.724-1.502.001-.176-.146-.284-.2-.382-.05-.055.107-.53.02-.51.09.087-.092.2-.191.337C.457 48.57.132 47.443.039 46.2c.045.107.102.156.218.13-.085.19.11.25.138.243-.098-.153.12-.326-.018-.448-.099.022-.402.008-.299-.118.084.002.151.073.241.053.13-.111.064-.24.032-.232.004.121.017.155-.043.2-.33-.933-.258-1.898-.064-2.895.314-1.616.948-3.32 1.9-4.996.17.007.338-.159.508-.325-.097-.092-.115-.198-.01-.32.159-.032.277-.101.346-.16.34-.415.254-.392.512-.599.112-.052-.018-.175-.108-.304-.098.135-.294.306-.486.474.059-.088.119-.175.18-.263l3.181-4.593c.057-.01.141-.023.276-.04-.192.117-.2.135-.191.188-.034.155.023.2.105.182-.12-.278.404-.492.115-.48.2-.075.19-.013.35-.263-.063-.079-.092-.164-.073-.256-.238.252-.034.17-.122.285-.02-.041-.125-.006-.19-.004.074-.071.784-1.097 2.13-3.077.176-.015.36.015.483.126.227-.282.23-.284.507-.498-.326-.166.082-.438-.02-.636-.122.227-.133.306-.171.315-.021-.122-.093-.154-.173-.21l3.621-5.225c.083-.061.116-.137.147-.213.134-.137.156-.109.187-.116.006-.031.827-1.267 2.461-3.706.012.012 1.65-2.351 4.911-7.089.07-.014.124.032.166.121.133-.392.633-.465.698-.685-.234.133-.275.107-.195.028.228-.038.316-.102.4-.165.083-.063.16-.124.254-.145.02.073-.098.16-.068.228.155-.13.23-.246.185-.346-.244.078-.31.072-.23-.022.164-.026.333-.07.49-.07-.107-.11-.244-.028.023-.268-.056-.218-.244-.207.145-.553.11-.193.265-.392.243-.568.253-.05.33-.081.421-.166-.157.019-.205-.025-.254-.014-.038.009-.076.05-.167.18-.163-.084-.112-.165-.246-.247l.504-.726c1.982-2.862 4.638-5.132 7.457-6.373.706-.311 1.403-.55 2.081-.714-.015.29.233.112.005.491.181-.041.223-.059.255-.066.091-.02.117.033-.048.357.014-.193-.025-.247-.067-.238-.083.215-.03.269.126.233.224-.539-.04-.558-.312-.652.133-.147.167-.154.2-.162C33.91.51 35.07.476 36.12.684c-.177.162-.29.313-.29.45.23-.099.184-.11.304-.447.636.127 1.233.344 1.779.65l.64.357c-.127.105-.19.337-.016.303-.143.132-.205.045-.138-.193-.272.248-.243.371-.507.498-.023.193.192.119.235.179-.055-.08.158-.201.122-.284-.234.132-.276.107-.195.028.159-.053.217-.044.275-.036.24-.01.303-.043.375-.11-.02-.203-.055-.15-.206-.29.06-.033 2.204 1.123 6.432 3.468-.37.327-.796.672-.526.755-.089.084-.123.16-.156.234-.002-.039.018-.253-.072-.233.059.104-.368.372-.339.365.113-.088.165-.119.211-.13-.134.336-.05.215 0 .283l-1.154-.645c.137-.105.26-.234.247-.44-.198-.202-.215-.194-.235-.18-.077.188-.082.26-.088.331.103-.073.112-.184.157-.194-.239.397-.188.174.109.263-.18.068-.222.03-.247.188.03-.411-.39-.49-.398-.789-.201.224-.02.394.087.574-.008.005-.328-.16-.96-.495.262-.118.35-.169.407-.182.119.012.15.018.198.007.05-.011.121-.042.23-.11-.31.033-.344.017-.363-.057.334-.088.071-.192.122-.283.17.016.18.037.186.036-.248-.34-.311-.764-.578-.703-.088.02-.198.092-.343.238.197.416.002.803.066 1.002-.006-.015-.612-.35-1.819-1.006.309-.057.45-.142.517-.21-.285-.024-.31.002-.335.027-.223.078-1.106-.356-2.824-1.293-.725-.406-1.547-.632-2.439-.682-.043-.122-.123-.238-.228-.35-.133.1-.27.219-.402.344-.495.017-1.008.085-1.534.204-.232.053-.467.115-.705.187-.014-.111.028-.188.07-.265-.138.064-.12.212-.104.276-.407.126-.821.281-1.24.465-1.992.88-3.877 2.324-5.448 4.158-.157.185-.258.308-.359.432-.2.024-.268-.021-.377.096.094-.011.145-.042.192-.053.062.112.007.183-.048.254-.212.277-.375.502-.534.73-.169-.014.05-.187-.088-.308-.098.022-.403.008-.3-.118.085.002.152.073.242.052.13-.11.064-.239.032-.231.004.121.017.155-.044.2-.262.218-.219.34-.05.302-.051.153.057.226.113.24l-1.491 2.154c-.173-.006-.194.044-.213.094-.101-.094-.166-.03-.229.031.044.09.099.136.17.12.02-.138.228-.222.27-.242l-3.072 4.434c-.006.006-.083.117-.232.334-.196.156-.03.18-.31.278.013.026-2.614 3.875-7.883 11.547-.166.18-.194.178-.198.179.039.01-1.571 2.37-4.831 7.08-.27.065-.374.08-.402.04.293.058.315.054.338.053l-.147.211c-.043.019-.493.669-1.351 1.951-.14-.031-.17-.014-.204.016-1.334 2.204-2.167 4.18-2.527 6.034-.605 3.119.132 5.876 2.213 7.248.157.1.234.146.313.19l2.229 1.246c-.35.114-.188-.037-.37-.028l-.19.187c.106.025-.019.254.064.235.086-.29.38-.18.545-.367l2.703 1.51c-.095.036-.133-.076-.205-.06-.09.226.064.069.136.26.048-.041.654.218 1.817.777-.138.11-.15.131-.126.193.099.028.081.24.17.22.037-.11.115-.14.192-.163.144-.008.176.019.233.012l1.127.63c.098.112 3.394 1.92 9.965 5.567-.133-.027-.158-.042-.19-.035.036.125.006.236-.138.363.031-.132.017-.278-.013-.271-.359-.032-.165.11-.315.263.098.101.173.024.218.013.096.008.315-.094.33-.303.076.006.672.31 1.788.909 1.283.717 2.87.875 4.603.484.643-.146 1.305-.366 1.98-.664 2.495-1.1 4.82-3.088 6.573-5.617l5.474-7.9c.185-.023.289-.07.339-.116.16-.152.065.092.299.117.038.084-.019.305.03.293.124-.155.172-.134.206-.115.088-.204-.165-.039-.041-.206.08-.01.17-.11.226-.202-.152-.03-.232-.075-.173-.179-.04.059-.089.171-.131.287-.37.084-.038-.34-.23-.34-.094.194-.136.188-.182.183.087-.165.055-.209.024-.252l13.053-18.84c.15-.183.167-.217.183-.257-.002 0 .274-.4.827-1.201.255-.369.492-.74.712-1.115.216-.168.341-.126.273-.053.18-.067.197-.06.21-.064-.127-.055-.142-.179.038-.342.224.053.283-.014.36-.084.076-.07.168-.144.3-.174-.148-.03-.23.024-.307.077-.078.053-.152.105-.216.12.187-.336.06-.226.24-.473-.08.09-.353.07-.289.202.16.045-.33.35-.404.642.319-.771.654-1.48.925-2.182.164-.033.192-.031.213-.003-.083.086-.254.158-.2.146.21-.025.303-.268.292-.318-.074.043-.135.068-.186.08.04-.167-.013-.213.049-.274.21-.693.377-1.306.494-1.907.519-2.677.05-5.086-1.41-6.583.107-.131-.083-.211.03-.334-.202-.091-.267-.06-.33-.007-.246-.156-.52-.348-.816-.514l-1.49-.832c-.049-.057-.521-.321-1.417-.792.188.018.23.029.277.018-.024-.14.247-.16.221-.298-.076-.054-.308.01-.206-.29-.147.108-.166.107-.186.105-.11.249-.357.256-.365.32l-6.964-3.89c-.125-.094-.108-.186-.098-.276.015-.11.019-.22-.052-.205-.07.147-.115.242-.158.308-.159-.094-.892-.503-2.358-1.318l.371-.364c-.096-.092-.114-.198-.01-.32.16-.033.278-.102.347-.16.089-.219.192-.31.265-.379l9.453 5.281c.063.14.142.256.257.241.015-.014 1.014.511 2.995 1.577.295.165.569.352.822.56.122.225.039.42.3.474-.07.081-.187.17-.157.236.227-.122.22-.287.155-.445 1.77 1.686 2.353 4.49 1.747 7.61-.056.289-.122.579-.198.872-.2.08-.219.112-.205.198 0 .537-.142.967-.305 1.398-.133-.038-.232-.02-.343.047.059.1.02.204.093.187.083-.124.125-.2.165-.277.024.066.029.131.03.187l-.102.256c-.4.116-.706.396-.838.698.125-.054.185-.164.284-.186.046-.241.311-.324.54-.477-.491 1.2-1.146 2.412-1.963 3.59l-19.903 28.73c-1.982 2.861-4.638 5.13-7.457 6.372-.75.33-1.489.578-2.207.743m2.577-1.78c-.026.027-.039.08-.005.072.01-.002.022-.01.04-.023-.064-.131.209-.11.289-.2-.062-.05-.028-.163.042-.179.015-.003.032-.002.05.006-.029.027-.04.078-.005.07.009-.002.022-.008.04-.021.032-.127-.041-.173-.15-.149-.017.004-.034.01-.052.017.015.099-.076.146-.179.169-.054.012-.112.018-.159.021-.047.004-.083.005-.095.007-.013.003-.001.008.047.018.031.027.07.027.11.018.018-.004.036-.01.054-.016l.054-.015c.04-.009.08-.01.11.018-.035.068-.08.094-.124.105-.027.006-.053.006-.077.005-.024 0-.046-.002-.062.002-.027.006-.04.027-.025.09.022-.02.044-.037.062-.042m-7.85 1.2c.056-.056.106-.08.151-.09.04-.01.077-.008.114-.006.037.002.074.003.114-.006.058-.013.122-.049.2-.141-.187-.016-.06-.22-.21-.186l-.024.006c.129.18-.03.255-.18.289-.05.011-.1.018-.137.023.112-.13.179-.084.287-.2-.054-.209-.205-.052-.3-.118.007.001.016 0 .028-.003.107-.024.403-.175.199-.136-.035.024-.067.035-.094.041-.017.004-.032.006-.047.008-.014.001-.027.003-.04.006-.044.01-.079.036-.108.146.01.066.032.082.06.075.022-.005.047-.022.072-.04.025-.018.05-.036.072-.04.028-.007.05.008.06.075-.02.025-.048.039-.079.046-.033.007-.07.007-.104.006-.035 0-.067-.002-.092.003-.038.009-.059.033-.047.096.017-.014.032-.022.045-.024m9.893-2.503c.056.081-.156.199-.121.282l.03-.006c.159-.036.085-.145.189-.29-.028.111.013.206.104.185.028-.006.06-.023.096-.053 0-.087 0-.13-.013-.127-.013.003-.037.05-.084.14-.059-.099-.02-.204-.093-.188m.934-.144c.263-.253.214-.461.325-.569l.015-.012-.015.012c-.012.01-.023.015-.034.018-.02.004-.039-.003-.057-.01-.018-.006-.037-.012-.058-.008-.01.003-.02.007-.031.015.09.07.02.371-.101.398-.016.004-.033.003-.05-.004.04-.06.15-.316.075-.3-.012.003-.03.013-.051.032.127.13-.27.054-.156.234.07-.066.106-.094.122-.098m1.944-.781c.172-.139.174-.243.272-.36-.134-.014-.275 0-.414.009.02.19.356.04.205.289-.007-.01-.02-.013-.033-.01m.242-.289l.011.001.024-.036m0 0c.027-.029.058-.057.103-.088-.02-.19-.393.099-.235-.18.007.01.02.013.034.01.024-.005.047-.03.03-.071-.006 0-.011.002-.017.003-.12.027-.197.159-.202.293.02-.018.05-.03.082-.038m-22.32-1.401c0 .06.005.118.052.108.018-.004.042-.018.074-.047-.056-.099-.074-.203-.01-.319.03.07.124.081.218.06.12-.027.24-.106.235-.176-.02.017-.035.026-.045.028-.022.005-.024-.018-.026-.04-.003-.024-.005-.046-.028-.041-.008.002-.019.007-.033.017.013.052-.013.11-.091.173-.035-.049-.093-.006-.133-.035.176-.094.169-.37.04-.34-.015.003-.032.01-.05.024.011.05.065.095.005.158-.017-.011-.03-.014-.04-.012-.034.008-.016.075.074.06-.195.17-.282.164-.318.311.024-.028.04-.04.051-.043m29.44-8.628c-.012.071-.016.14.028.13.013-.003.03-.013.054-.033.116-.342-.037-.383-.177-.403.047.05-.05.305.024.288.012-.003.028-.012.05-.03.031-.068.045-.094.049-.095m.405-.022c.03.02.042.028.044.028.002 0-.017-.016-.043-.03M8.328 53.678l.013-.002c.2-.045.61-.429.334-.42.018.033.03.066-.03.11.025-.097-.003-.15-.067-.136-.04.009-.096.046-.162.116.063.08.038.172-.023.269-.007-.01-.021-.013-.035-.01m36.598-8.444c.019.006.038.012.06.007.025-.006.054-.025.09-.076-.056-.146-.154-.18-.248-.158-.118.026-.23.141-.24.228l.012-.002c.054-.012.094-.053.128-.092.035-.039.065-.077.1-.085.032-.007.069.01.117.075-.069.076-.149.027-.128.125.019-.016.035-.025.05-.028m1.607-2.338c-.092.078-.16.365-.149.363.003 0 .012-.024.028-.078.197-.135.059-.222.185-.347.072.05.015.175.068.163.008-.002.02-.008.035-.018.067-.235-.119-.148-.235-.18-.115.106-.19.206-.22.298-.044-.051-.048-.187-.055-.185-.003 0-.006.024-.013.089-.021.116-.01.151.02.145.031-.008.085-.064.143-.122.057-.057.12-.115.17-.127M5.413 52.11c.036.015.07.03.112.021.025-.005.053-.02.084-.049.015-.2.002-.295-.02-.29-.022.005-.054.107-.078.304-.044-.07-.105-.077-.166-.084.042-.06.124-.124.092-.172-.114.217-.215.17-.218.296.03-.029.058-.043.082-.049m-.57-1.2c.027.073-.05.1-.128.125.01.095.113.168.18.154.039-.01.065-.049.05-.133-.307.05.468-.127.161-.076-.064-.054-.162.02-.23-.021.028-.027.04-.078.006-.07m48.14-17.212c-.053.07-.086.191-.029.178.009-.002.02-.007.034-.017-.018-.033-.03-.068.03-.112.046.059.068.079.08.076.026-.006-.007-.135.047-.2.023.02.04.027.054.024.028-.007.038-.053.038-.097 0-.045-.008-.087-.016-.085-.006.001-.012.028-.013.097-.017.016-.032.025-.046.028-.03.006-.053-.014-.076-.034-.022-.02-.045-.04-.075-.033-.01.002-.021.007-.033.017.05.105-.125.075-.094.173.023-.019.045-.037.063-.041m1.067-.492c.159-.313.155-.347.294-.457.006-.003.012-.008.017-.013l-.017.013c-.007.005-.015.008-.021.01-.05.01-.087-.048-.03-.12.015.016.03.03.05.025.013-.003.028-.014.047-.039-.175-.028-.223-.08-.298-.117.053.12-.223.097-.122.283.013-.005.025-.01.037-.012m.248-1.02c.05.065.045.137.04.208.032-.025.06-.037.087-.043.017-.004.033-.005.05-.007.015-.002.032-.004.048-.008.023-.005.047-.014.074-.031.16-.333.513-.35.024-.27.108-.056.18-.275.114-.26-.013.003-.032.014-.056.038.032.109-.09.07-.19.188.095.093.112.196.01.318-.035-.05-.093-.007-.132-.036.168-.12.11-.166.028-.148M.845 42.542l.031-.005c.165-.038.15-.156.19-.292.028.048.083.109.113.102.014-.003.023-.023.018-.068-.054-.053-.093-.164-.164-.148-.012.002-.023.008-.036.017.05.106-.125.075-.092.173.017-.014.03-.021.04-.024.051-.011.015.11-.037.183-.006-.01-.02-.013-.033-.01m57.382-16.517c.015.044.021.09.032.088.007-.002.015-.023.029-.078-.007-.075.086-.109.186-.131.043-.01.087-.018.126-.026-.143-.027.1-.257.046-.244-.01.002-.034.015-.076.04-.037.13-.158.202-.277.229-.076.017-.152.016-.205 0l.028-.005c.164-.037.22-.216.352-.368.006.01.02.014.034.01.023-.005.046-.03.03-.072-.046.044-.085.064-.12.072-.03.006-.058.005-.085.004-.028 0-.055-.002-.085.005-.039.009-.081.031-.132.085.024.056.062.06.103.05.014-.003.028-.008.043-.013.015-.005.03-.01.044-.013.014-.003.027-.004.04-.003-.181.22-.339.14-.283.36.037-.043.066-.063.089-.068m.465-.065l.008-.007-.019.003m.019-.003l.012-.003c.085-.02.122-.041.009-.1m.723-1.239c.01-.002.024-.009.044-.021l-.02-.056m0 0l.049-.055-.065-.021m-55.1 11.214c.046.025.194.149.25.136.018-.004.026-.024.016-.068-.03-.067-.108-.127-.04-.207.008.01.022.013.035.01.024-.006.046-.03.029-.072-.018.012-.036.02-.054.024-.069.016-.138-.02-.177-.045m0 0l-.004-.003m0 0c-.017-.016-.025-.022-.026-.022m55.93-15.742c-.04.098-.068.193.024.172.02-.004.044-.014.074-.029-.106-.039-.027-.279.067-.3.018-.004.037 0 .055.015-.053.053-.032.132.028.118.012-.003.026-.01.042-.02-.089-.076.015-.18.022-.27l-.02.006c-.026.006-.06.008-.096.011-.037.004-.075.007-.11.015-.067.015-.116.046-.097.12.023-.015.04-.023.051-.026M10.851 26.08c.01.057.012.115.022.113.006-.002.015-.028.031-.096-.043-.145.141-.038.157-.236.001-.09-.073-.122-.133-.108-.053.012-.095.06-.064.136.013-.013.027-.02.04-.023.05-.01.086.048.03.12-.037-.058-.085-.073-.14-.06-.028.006-.059.02-.09.039.009.05.009.118.016.116.003 0 .009-.02.018-.068.02-.021.035-.033.049-.036m47.598-11.69c.024-.005-.071-.083-.21-.106m-.001 0h.002m.32-.153c.245-.182.04-.199-.028-.242l.068-.067-.05-.01c-.048.037-.043.06-.018.077-.055.056-.104.109-.134.144.045-.02.097-.04.159-.062m-.347.198c.03-.007.088-.038.164-.104l.024-.032m.202-.211c.042.008.085.013.132.003.051-.012.108-.044.175-.115-.045-.11-.096-.246-.144-.235-.02.005-.039.034-.057.102.022-.019.044-.036.062-.04.016-.004.028.002.035.027-.087.012-.148.023-.188.032-.18.04.03.058.109.12.015-.01.027-.017.036-.02.023-.004.023.02-.014.089.015-.028.002-.05-.022-.07m-1.094.016c.064-.298.039-.23.232-.395l.017-.014-.017.014c-.016.013-.032.024-.045.027-.015.004-.028-.003-.036-.027.061-.09.082-.122.077-.121-.007.001-.05.05-.105.1-.054.05-.122.104-.176.117-.02.004-.038.003-.054-.006m-44.212 9.857c.05-.002.098-.005.15-.016.04-.01.082-.024.127-.05-.013-.05-.067-.096-.006-.159.007.01.02.014.034.01.024-.005.047-.03.029-.072-.017-.004-.033-.003-.046 0-.049.01-.074.059-.097.107-.024.048-.045.095-.086.104-.016.004-.036.001-.06-.01.042-.21.168-.235.186-.346-.017.014-.031.021-.042.024-.04.009-.034-.056-.026-.12-.217.19-.001.318-.18.505-.007-.059-.057-.07-.112-.057-.091.02-.197.104-.147.146.045-.025.087-.04.127-.05m.16-.717c0 .088-.017.179-.002.175.007-.001.02-.022.044-.073-.064-.146.364-.473.18-.505-.082.101-.051.185-.122.285-.072-.05-.015-.176-.068-.164-.009.002-.02.008-.035.018.026.058.024.079.007.083-.015.003-.043-.009-.07-.02-.028-.013-.056-.025-.072-.022-.016.004-.018.025.008.083.013-.007.025-.01.036-.013m.622-.879c-.038.2.05.056.138.194-.042.06-.125.124-.092.172.226-.205.347-.224.41-.484-.096.115-.174.162-.243.178-.064.014-.121.002-.178-.012.068-.062.02-.124-.013-.116m.806.09c.27-.368.15-.503.041-.53-.142.194-.263.387-.334.57.061-.066.115-.105.161-.116m.173-.454l.007-.01c-.009-.024-.022-.03-.037-.027-.018.004-.04.022-.061.04l.014-.004M53.053 10.91c.251-.18.213-.09.512-.339-.026-.058.02-.181-.057-.164-.012.003-.027.009-.046.02l.018.079s-.037-.143-.09-.282c-.054-.14-.126-.274-.2-.258-.012.003-.025.011-.038.025-.01.069-.018.095-.024.097-.009.002-.015-.043-.025-.087-.01-.044-.023-.087-.046-.082-.01.002-.022.014-.036.037.028.07-.049.098-.127.124.382.048-.297.345-.174.664.044-.06.08-.089.109-.095M17.54 17.186c-.268.197-.5.45-.31.469.018-.173.393-.331.409-.483-.075.007-.167-.126-.172-.243m-.698.685c-.067.074-.149.027-.128.125l.013-.002c.122-.028.2-.161.207-.295-.044.057-.08.082-.11.089-.035.008-.063-.005-.091-.018-.029-.013-.057-.025-.09-.018-.036.008-.077.038-.13.112.017.062.045.076.08.068.028-.006.06-.027.091-.048.032-.02.064-.041.091-.048m1.393-1.666c.105-.07.15-.046.19-.186.033.018.058.065.097.056.01-.002.023-.008.036-.02-.046-.065.066-.357-.054-.33-.014.003-.032.01-.054.024.037.23-.167.161-.152.394-.006-.01-.02-.012-.033-.01M43.937 5.228l-.032-.03m-4.882-1.692c.288-.163.19-.519.094-.497-.004.001-.01.003-.014.006.029.071-.049.099-.126.124.003.15.304-.024.137.194-.022.02-.043.037-.061.041-.015.004-.028-.003-.036-.027.11-.084.031-.104-.041-.088-.06.014-.117.053-.056.101.02-.013.033-.02.043-.023m.654-.563c-.01.059-.011.116.017.109.011-.002.025-.013.045-.035-.04-.119.22-.28.054-.38-.052.07-.091.096-.126.104-.021.004-.041.003-.06.001-.02-.002-.04-.004-.062.001s-.047.018-.076.046c.055.053.093.165.166.148.01-.002.023-.008.035-.016l.03-.097m-2.628-.229c.18-.108.19-.133.478-.386-.132-.23.041-.154.121-.283-.01-.031-.045-.037-.09-.027-.164.038-.47.28-.296.242.043-.051.076-.075.101-.08.076-.018.083.126.067.16-.03-.004-.058-.003-.083.003m.607.144c.164-.037.335-.244.233-.4-.174.23-.127.322-.305.362-.022.005-.047.009-.076.012m-1.365-.532c-.027.026-.038.077-.005.07.01-.002.022-.009.039-.022-.127-.132.27-.057.156-.235-.07.078-.114.111-.145.118-.035.008-.05-.018-.065-.045-.014-.026-.027-.053-.054-.046-.008.001-.018.006-.03.015.016.019.002.067-.027.073-.01.003-.022 0-.036-.011.07-.205.084-.076.254-.25l-.103-.145c-.34.491-.3.253-.605.511.028-.025.04-.078.005-.07-.009.002-.022.009-.039.022-.04.114.036.153.121.134.075-.017.157-.079.173-.175m-2.363-.243c.01.034.022.068.066.058.023-.005.054-.022.097-.055-.048-.106.124-.075.093-.172-.054.024-.106.042-.157.053-.082.019-.16.02-.235.002.034-.028.065-.041.093-.048.03-.007.059-.006.087-.005.028.002.055.003.085-.004.029-.006.059-.02.092-.047-.019-.058-.05-.07-.087-.062-.028.006-.06.025-.09.044-.033.018-.064.036-.092.043-.04.009-.074-.007-.092-.081.02.004.038.003.054 0 .056-.013.083-.065.093-.113.011-.048.007-.093-.002-.09-.006 0-.013.023-.018.079-.008 0-.014.002-.021.004-.156.035-.215.26-.131.39.044-.034.075-.05.098-.055M22.48 62.392c.03-.05.09-.102.137-.112.016-.004.03-.003.041.006-.05.061-.06.117-.06.172M17.663 59.7c.01-.04.03-.075.058-.081.01-.003.021 0 .033.007.02.036.02.086.02.136m24.972-12.228c.024.058-.018.083-.069.1M2.478 37.57l-.001.003m1.65-.717l.018.027-.053.077m2.246-5.015l.063-.09c.003.043.005.078.01.118m51.525-17.527c.023-.01.062-.036.146-.093-.19.208.045.141.001.234M53.87 12.02c.061-.01.085.01.086.048m.869-1.282l.048.027-.009.003" transform="rotate(-6 545.723 -997.15)"/>
                                <path d="M27.113 60.233c.201-.05.603-.427.33-.419-.14-.016-.194.02-.26.09.062.08.038.173-.024.27-.428-.026-.77-.153-1.086-.33l-3.635-2.022c.116-.068.183-.132.242-.146.073-.039.154-.14.132-.224-.222.058-.328-.108-.207-.29-.096.125-.215.088-.19.187-.003.062.344.191.303.276-.066.014-.228-.095-.297-.08.019.12.16.073.073.218-.018.011-.107-.009-.267-.06-.062-.14.052-.14.123-.291-.096.034-.131-.025-.166-.084-.096.126-.215.089-.192.188.095-.024.136.041.161.109.004.01-.673-.354-2.032-1.093-.04-.12-.141-.205-.185-.282-.03.03-.873-.38-2.527-1.227-.016-.037-.073-.068-.171-.096.14-.026.284-.057.418-.057-.107-.111-.244-.029.024-.269-.055-.214-.238-.208.126-.536.047.03 1.591.89 4.632 2.578.035.058 1.443.841 4.224 2.352.824.458 1.834.536 2.898.295 1.882-.427 3.923-1.85 5.372-3.94l5.782-8.333c.306-.159.579-.352.298-.428.033.142-.019.18-.098.199-.01.002 2.104-3.064 6.342-9.198.125-.108.266-.218.207-.3l2.93-4.22.878-.387-.002-.834.26-.418c.088.059.084.237.187.214.057-.104.048-.176.051-.251-.076-.01-.123-.037-.189-.033l4.251-6.126c.027.173.032.231.079.22.018-.144 0-.249.064-.365.03.07.124.081.218.06.12-.027.242-.106.236-.176-.12.015-.145.073-.224.138.019-.117.035-.332-.045-.372.653-1.046 1.078-2.122 1.277-3.14.263-1.355.123-2.603-.42-3.527.05-.24-.223-.28-.087-.409-.427-.285-.724-.539-1.076-.734l-4.635-2.58.023-.844-.86.378-1.03-.573c.044-.104.21-.132.346-.29-.082-.078-.28.148-.377.273-.13-.095-.762-.43-2.002-1.115-.017-.019-1.442-.812-4.275-2.379.009-.172.136-.367.063-.419-.185.137-.229.194-.259.25-.006.01-.337-.154-.993-.493-.004-.004-.086-.05-.248-.138.134-.063.153-.056.176-.061-.12-.052-.06-.173-.141-.154-.005.07-.066.127-.132.162l-1.616-.9c.13-.1-.028-.215.045-.258-.223.017-.284.044-.343.092l-2.352-1.309c-.037-.07-.482-.318-1.337-.744.132-.054.174-.043.221-.054-.024-.139.248-.16.222-.298-.077-.054-.309.01-.207-.29-.147.109-.166.107-.186.105-.103.156.045.08-.034.193-.086.063-.384.064-.323.153.07-.016-.18-.148-.75-.397-.478-.266-1.02-.404-1.597-.426.01-.156-.003-.259-.151-.26-.108.176.084.187.138.193-.151.064-.243.064-.335.068-.202.01-.373.027-.547.053-.02-.066.014-.14-.041-.202-.05.113.001.158-.055.218-.132.013-.167.024-.203.038-1.287.29-2.53.951-3.652 1.923-.724.642-1.312 1.298-1.825 2.039l-.13.186c-.108.128-.281.098-.25.195.069-.005-.313.6-1.146 1.818-.038.032-.093.11-.164.235.124.005-.279.208-.275.397L11.418 30.732c-.117-.088.314-.496.158-.474-.128.116-.148.112-.174.118-.016.087.013.153-.108.241.043-.064-.022-.193-.055-.186.004.122.017.156-.044.2.06-.02-.033.24.122.248l-.218.314-.93.41.002.833-3.533 5.185c-.053.009-.384.486-.992 1.43-.669.964-1.139 1.963-1.413 2.929-.054-.016-.121-.032-.206-.047-.096.19-.24.388-.244.566.154-.088.18-.075.197-.027-.363.193-.057.133-.123.284-.36.082-.065.083-.248.407.138-.185.27-.34.457-.475-.315 1.688-.002 3.204.938 4.128.048.147.085.169.168.153-.085.065-.158.053-.271.198.138.02.021.246.08.232.117-.116.167-.105.217-.094.172-.056.21-.1.243-.133.07.047.143.091.218.133l1.387.772c-.185.065-.22.095-.206.145.212.108.24.11.27.103.017-.065.005-.144 0-.212l1.127.626c-.104.138-.245.519-.122.62-.09.083-.124.159-.158.236-.026-.058.02-.182-.058-.164-.099.17-.048.213.037.193.145-.032.39-.244.403-.403-.176.07-.277.03-.167-.083.112.059.147.036.182.013-.152-.16-.108-.305-.043-.37.063.148.07.16.099.153.107-.028.156-.026.183.037 0-.007.573.3 1.72.924l-.112.884.281-.123c.032.217.231.211.303.262-.148-.105-.22-.172-.2-.307l.538-.238c.016.029 1.055.598 3.117 1.708-.023.072-.09.151-.192.235.042.074.1.083.165.068.108-.11.131-.17.157-.231l.933.52c.12.09.122.154.267.148-.046.112-.112.088-.21.194.134.032.173.06.23.019-.078.069-.163.09-.115.18-.164.168-.343.259-.405.273-.144.143.177.056.245.066.012-.286.145-.226.27-.302-.02.07-.029.145.032.166.122-.119.177-.225.21-.318.016-.039.36.108 1.033.44.033.35-.167.65-.383.965l-4.418-2.46c.114-.183-.158-.193-.34-.188-.067-.143.003-.213.072-.284.046-.33-.235-.38-.051-.525-.202.079-.133-.083-.137-.193-.324.184-.418.183-.676.415L5.07 48.155c-1.126-.627-1.766-1.776-1.921-3.18.132.037.108.2.19.181.152-.037.126-.112.403-.221-.32.015-.366.038-.409.048-.016-.183.007-.275.07-.373.085.003.15.074.241.054-.022-.085.248-.366.174-.35-.146.134-.113.218-.185.316-.053-.086-.04-.173-.053-.17-.12.053-.229-.02-.153-.118-.134-.064-.183-.088-.21-.082.074.314.253.33-.072.683-.069-.662-.03-1.379.115-2.123.257-1.327.856-2.747 1.794-4.098l5.229-7.535c.048-.05.559-.786 1.533-2.21.135.015.362 0 .44-.018-.133.014-.168-.055-.193-.126-.013-.037.479-.816 1.476-2.338.047.09-.307.478-.139.44-.01.1.183.196-.051.352-.07-.03.09-.26.027-.246.015.17-.267.351-.184.484.146.066.214.094.235.09.035-.009-.057-.104-.143-.264.184-.06.218-.08.248-.088-.046-.242-.003-.498.117-.763.106.007.166.006.194 0 .101-.383.227-.714.195-.706-.167.176-.028.262-.226.395.018-.05.36-.572 1.025-1.566.112.028.132-.197.317-.255-.051-.055.467-.869 1.554-2.441.219-.043.329-.097.336-.138-.132.048-.123-.117-.095-.21.052-.07.165-.232.34-.489.22-.022.254-.061.213-.092-.253.017.195-.179.086-.332-.004.004.967-1.398 2.914-4.207.087.05.185.092.305.065-.177-.2-.178-.217-.182-.233-.063.11 1.724-2.47 5.362-7.736.537-.774 1.145-1.468 1.794-2.069-.035.104-.028.181.038.205.061-.063.112.13.236.18.074-.14.151-.195.222-.211.184.022.218.035.238.03-.02-.116-.08-.126-.142-.131.356-.475.173-.44.433-.754 1.02-.931 2.194-1.498 3.317-1.752.403-.091.799-.143 1.183-.152.51 0 .89.045 1.252.14-.075.096-.131.206-.087.318.213-.12.248.117.333.166.216-.155.22-.11.404-.252.078.036.154.076.23.117L38.29 5.98c-.172.184-.316.399-.268.663.12-.033.168-.037.216-.042.257-.045.378-.105.53-.278 0-.016.19.064.57.24-.081.08-.214.26-.128.462.064.1.116.048.118.212.039-.187.045-.231.09-.276.12-.21.141-.242.136-.24-.146.055-.138-.037-.13-.11l.745.415c.047.124.19.145.254.193.22.136.248.118.271.099l2.732 1.52c-.307.151-.433.222-.395.285.12-.046.157-.036.195-.027.156-.111.231-.157.276-.216l1.383.77c.005.222.011.28.059.27.093-.09.12-.125.144-.157l2.016 1.122c.091.19-.182.167-.13.286.08-.107.189-.157.289-.198l2.74 1.526c-.138.267.048.18.165.21-.095.127-.213.088-.19.187.083-.077.131-.024.224-.138-.022-.05-.035-.126-.063-.184l6.015 3.348c.107.073.116.104.122.135.65.295 1.046.663 1.35 1.107-.147.06-.159.066-.172.078-.123.094-.15.094-.172.099-.005.15-.02.176.003.17.052-.011.301-.181.386-.28.703 1.07.895 2.56.579 4.185-.258 1.327-.857 2.746-1.795 4.097l-5.18 7.466c-.156.07-.17.066-.183.07.066.008-.946 1.532-3.037 4.57-.061-.024-.123-.052-.162-.158-.25.3-.859.655-.562.88.14-.158.257-.194.388-.237l-.899 1.295c-.02-.003-.075.076-.164.237-.032.022-3.743 5.37-11.134 16.045-1.218 1.756-2.8 3.1-4.406 3.882-.17.04-.162-.05-.21-.188-.152.164-.323.328-.316.424-.404.165-.807.294-1.204.384m-1.887-.588c-.054.208.1.05.172.241.385-.328.096-.34-.017-.477.019.032.033.066-.028.111-.032-.02-.056-.066-.096-.057-.011.003-.023.01-.037.022.076.13.207.052.3.118-.064.062-.047.112-.093.172-.054-.053-.092-.165-.164-.148m-4.049-2.128c.028.073-.05.1-.127.125.01.095.114.168.18.153.039-.009.065-.049.05-.132-.308.05.47-.127.162-.076-.065-.055-.162.019-.23-.022.027-.026.039-.078.005-.07m-3.672-1.59c.305-.015-.34.28-.083.49.051-.07.09-.096.125-.104.022-.005.042-.003.061-.001.02.002.04.004.061-.001.023-.005.048-.018.076-.046-.21.02-.053-.454-.14-.434m19.367-5.938l-.035-.03m-.006-.007c.11-.215-.197-.112-.075-.256.021-.026.049-.04.079-.047.033-.007.069-.006.103-.005.035 0 .068 0 .093-.005.038-.009.06-.032.048-.095-.013-.008-.04-.005-.072.002-.02.005-.04.01-.061.017-.026.007-.052.015-.076.02-.078.018-.13.01-.056-.107.007.01.02.013.034.01.024-.005.047-.03.03-.073-.299.108-.308.501-.178.503-.01-.026-.007-.038.003-.04.024-.006.093.046.134.083m-26.403 2.123c-.028.063-.095.31-.088.307.003 0 .012-.024.032-.084.155-.129.23-.245.184-.348-.017.016-.033.024-.046.027-.031.007-.055-.012-.078-.03-.02-.021-.043-.041-.072-.035-.01.003-.022.008-.034.019.03.059.014.08-.02.088-.022.005-.049.005-.076.005-.027 0-.054 0-.075.004-.036.008-.054.03-.022.091.024-.02.047-.04.064-.044.015-.003.027.004.036.027-.007.1-.005.133.004.131.008-.002.025-.04.048-.077.024-.04.055-.08.093-.088m-.419.065c.236-.155-.023-.242.053-.378-.134.076-.235.138-.256.248.015-.013.03-.02.043-.023m-.098-.66c.034.109-.088.068-.189.185.112.145.085.31.112.466.236-.123.298-.283.123-.243-.019.004-.04.01-.064.02.06-.069.105-.098.14-.106.041-.01.068.01.088.03.018.02.028.042.035.04.01-.001.014-.04.026-.164-.03.023-.074.042-.123.053-.126.029-.272 0-.177-.172.005.068.086.088.146.074.052-.011.088-.047.052-.1-.022.018-.044.035-.062.04-.016.003-.029-.003-.037-.025-.037-.041.012-.128-.029-.119m31.716-8.033l-.02-.025c-.055-.107.22-.261.171-.37-.016.011-.032.018-.047.022-.035.008-.065-.008-.086-.055-.198.204-.092.34-.039.403m2.887-3.678l-.004-.006c-.016-.015-.024-.02-.026-.02m7.668-10.986c.052-.012.11-.065.156-.172-.078.072-.113.101-.126.104-.03.007.08-.146.056-.202-.077.073-.113.102-.125.105-.03.007.08-.146.056-.201-.03.035-.055.051-.078.056-.03.007-.056-.007-.082-.022-.025-.015-.05-.03-.08-.023-.016.004-.033.013-.053.03.074.05.01.293.012.293l.027-.084c.065-.064.047-.114.093-.175m3.396-5.382c-.095.022-.282.205-.318.311.084.162.158.221.2.212.057-.013.053-.153-.071-.338.087-.022.297-.22.234-.205m-.082-.86c.263-.253.215-.46.326-.568l.015-.013-.015.013c-.012.01-.023.014-.034.017-.021.004-.04-.002-.058-.009-.018-.006-.036-.013-.057-.008-.01.002-.02.007-.032.015.09.07.02.37-.101.398-.016.004-.033.003-.05-.004.04-.06.15-.317.074-.3-.011.003-.028.012-.05.031.127.131-.27.055-.156.234.069-.065.105-.094.122-.097m-45.421 7.63c-.08.073-.198.205-.137.192.01-.002.024-.008.043-.019.39-.18.202-.048.514-.34-.035-.043-.058-.055-.078-.05-.021.004-.038.026-.058.05-.02.023-.042.046-.076.054-.022.005-.048.003-.081-.011.013.05.066.096.005.158-.088-.09-.163-.117-.317-.083-.041.01-.089.024-.144.043.114-.107.044-.14-.028-.123-.063.014-.127.065-.07.137.013-.008.025-.014.035-.016.045-.01.055.036.065.081.011.046.022.092.066.081.01-.002.022-.007.036-.015-.049-.079.044-.144.124-.163m43.14-12.727s-.002-.006-.01-.018c.076-.305.131-.194.382-.374-.035-.023-.068-.028-.1-.02-.05.011-.1.05-.152.09-.051.038-.104.078-.162.091-.044.01-.09.005-.14-.029m-7.491-4.824c.062.146.153.184.26.16.043-.01.089-.03.136-.056-.104-.05-.189-.172-.313-.144m-6.212-2.496c.14-.287.482-.336.321-.314-.038-.022-.07-.03-.099-.023-.053.012-.092.07-.125.162-.402-.02.265-.293-.014-.318.039.19-.302.137-.185.349.018-.014.032-.021.045-.024m-1.229-.722c.024-.006-.072-.084-.21-.108m0 0h-.002m.324-.152c.243-.183.038-.2-.028-.244l.067-.066-.05-.009c-.049.037-.043.058-.017.075-.056.058-.105.11-.135.144l.16-.062m-.349.2c.03-.006.088-.038.164-.104l.025-.034m-.55-.685l.03-.026m-6.13-2.515c.056.208.207.051.3.118-.042.059-.125.124-.093.172.155-.128.23-.245.185-.345-.03.053-.076.08-.12.09-.1.023-.197-.043-.11-.11.01.009.04.007.076-.001.09-.02.212-.082.148-.137M30.687 59.67c.017.011.03.015.04.012.046-.01.057-.12.15-.198-.03.166.025.093.096.146-.094.043-.187.085-.28.125l-.016.004M17.043 53.64l.015.008-.033.034m-1.413-.427l.025-.045c.045-.048.086-.122.116-.254.009.078.019.12.032.143-.023.078-.068.149-.123.161m-1.377-1.155l.04.022c-.024.021-.038.031-.046.033m41.742-27.21c.014.013.04.022.077.015-.073.064-.13.103-.176.134m.127-.19l.042-.066c.004.022 0 .046-.027.074M11.918 28.87l-.034.008.06-.086c.056-.012.097.005.046.074m3.003-4.468c-.02.037-.04.072-.058.083m1.873-2.7l.074-.106c-.005.046-.015.092-.034.14M39.795 7.994l.05-.034c-.014.015-.025.03-.035.042m.643-.8l.018.028m-.047-.012l.006.007M28.472 5.893l.101-.079c.007.025.004.05-.025.08" transform="rotate(-6 545.723 -997.15)"/>
                                <path d="M25.846 17.463v-3.502l2.21-.97v.734l-1.327.583v.735l1.1-.483v.735l-1.1.483v1.298l-.883.387zm2.523-2.88c0-1.005.797-2.138 1.887-2.617 1.09-.478 1.886-.044 1.886.96 0 1.03-.797 2.182-1.886 2.66-1.09.479-1.887.025-1.887-1.003zm.913-.401c0 .598.434.858.974.62.54-.236.973-.877.973-1.475 0-.573-.434-.814-.973-.577-.54.237-.974.859-.974 1.432zm3.46.254v-3.503L34 10.382c.368-.162.545-.215.701-.225.409-.027.666.218.666.727 0 .372-.182.859-.54 1.192 0 .01.05.052.136.161l.702.917-.984.432-.64-.9-.414.182v1.18l-.883.388zm.884-2.303l.383-.168c.282-.124.459-.354.459-.633 0-.264-.1-.377-.545-.182l-.297.13v.853zM22.23 29.362l.457-5.706 1.472-.646.805 1.972c.124.3.28.786.28.786.015-.007.17-.63.294-1.038l.805-2.679 1.472-.646.45 5.307-1.356.596-.17-2.405c-.032-.402 0-.923 0-.923-.016.006-.202.665-.326 1.066l-.581 1.849-1.162.51-.581-1.339c-.124-.292-.31-.787-.31-.787-.015.006.015.5-.015.93l-.17 2.554-1.364.599zm10.28-4.513l-.341-1.005-1.728.758-.333 1.301-1.394.612 1.882-6.33 1.426-.626 1.882 4.678-1.394.612zm-1.193-3.726l-.016.007s-.124.655-.224 1.045l-.318 1.21 1.092-.48-.31-.934c-.1-.302-.224-.848-.224-.848zm2.827.245c0-1.602 1.24-3.378 2.905-4.109 1.372-.602 2.077-.133 2.077-.133l-.628 1.291s-.62-.29-1.387.047c-1.06.466-1.564 1.464-1.564 2.257 0 .816.542 1.417 1.564.969.837-.368 1.472-1.324 1.472-1.324l.698.68s-.783 1.267-2.232 1.903c-1.735.761-2.905.05-2.905-1.581zM11.38 44.426V36.42l3.065-1.346c1.489-.653 2.53-.062 2.53 1.494s-1.041 3.095-2.53 3.748l-1.622.713v2.762l-1.444.634zm1.443-4.659l1.354-.594c.84-.369 1.331-1.126 1.331-1.96 0-.823-.492-1.137-1.309-.779l-1.376.605v2.728zm4.879-2.176c0-2.288 1.768-4.857 4.107-5.884 2.339-1.026 4.107-.01 4.107 2.279 0 2.356-1.768 4.97-4.107 5.997-2.339 1.026-4.107-.035-4.107-2.392zm1.488-.653c0 1.646 1.164 2.353 2.619 1.714 1.455-.638 2.619-2.367 2.619-4.013 0-1.578-1.164-2.24-2.62-1.601-1.454.638-2.618 2.322-2.618 3.9zm13.205-9.742l1.41 4.916c.124.408.135.787.146.782.022-.01.056-.42.157-.914l1.309-6.11 1.488-.654-2.048 8.904-1.667.731-1.22-4.2c-.134-.459-.201-.96-.201-.96-.023.01-.09.57-.224 1.147l-1.22 5.271-1.667.732-1.992-7.13 1.488-.654 1.254 4.986c.1.407.134.786.134.786.033-.014.045-.403.168-.919l1.432-6.164 1.253-.55zm5.797 5.46V24.65l4.756-2.088v1.252l-3.312 1.454v2.097l2.675-1.174v1.251l-2.675 1.174v2.154l3.492-1.533v1.251l-4.936 2.167zm6.435-2.825v-8.005l2.563-1.125c.861-.378 1.253-.482 1.6-.477.795.012 1.298.558 1.298 1.618 0 .958-.503 2.07-1.343 2.776 0 .023.112.087.269.3l1.634 2.27-1.612.708-1.578-2.295-1.387.609v2.987l-1.444.634zm1.444-4.884l1.298-.57c.772-.339 1.253-1.012 1.253-1.813 0-.766-.324-1.097-1.455-.601l-1.096.481v2.503zM31.808 47.887c.06-.086.159-.13.22-.095l.982.534c.061.033.06.132.002.215l-.963 1.368c-.06.085-.158.128-.22.095l-.987-.525c-.062-.033-.06-.132-.002-.215l.968-1.377zm-1.424 1.995c.062-.087.16-.13.22-.096l.964.544c.06.034.058.134 0 .217l-.963 1.367c-.06.086-.158.129-.22.095l-.987-.524c-.062-.033-.063-.129 0-.217l.986-1.386zm0 2.742c.061-.088.16-.131.219-.098l.993.56c.06.034.056.134-.002.217l-.97 1.384c-.06.087-.16.13-.219.098l-1.017-.545c-.06-.033-.06-.128.003-.217l.992-1.4zm-1.458-.743c.06-.086.159-.13.22-.095l.982.534c.061.033.059.133 0 .216l-.981 1.379c-.061.086-.162.128-.22.095l-.97-.535c-.06-.034-.058-.134 0-.217l.97-1.377zm2.908-1.27c.06-.086.158-.129.22-.095l.98.534c.062.034.06.133 0 .216l-.98 1.376c-.061.086-.162.128-.22.095l-.969-.533c-.06-.033-.058-.132 0-.216l.969-1.377zm-1.452-3.485c.06-.087.158-.13.22-.096l.975.546c.06.034.06.134.001.217l-.963 1.367c-.06.086-.158.13-.22.096l-.987-.525c-.061-.033-.063-.128-.001-.217l.975-1.388zm-1.432 2.016c.061-.086.159-.13.221-.096l.98.534c.062.034.061.133.003.216l-.963 1.367c-.06.086-.158.129-.22.096l-.987-.525c-.062-.033-.06-.132-.002-.215l.968-1.377zM22.23 45.631v-3.163l1.228-.54v3.164c0 .525.344.654.87.423.527-.231.87-.662.87-1.187v-3.163l1.229-.54v3.164c0 1.127-.828 2.288-2.092 2.843-1.277.56-2.105.126-2.105-1zm4.934-.955l.645-1.214s.569.268 1.2-.009c.253-.11.527-.329.527-.63 0-.595-2.26.418-2.26-1.121 0-.924.78-1.875 1.776-2.313 1.08-.474 1.614-.141 1.614-.141l-.52 1.228s-.505-.219-1.108.046c-.253.111-.534.346-.534.626 0 .63 2.26-.474 2.26 1.108 0 .833-.638 1.834-1.768 2.33-1.18.518-1.832.09-1.832.09zm4.442-1.32v-5.004l3.145-1.38v1.05l-1.916.84v.91l1.53-.671v1.05l-1.53.671v.945l2.014-.884v1.05l-3.243 1.423zm4.127-1.812V36.54l1.748-.767c.512-.225.758-.298.976-.31.568-.032.926.322.926 1.05 0 .532-.253 1.224-.75 1.694 0 .014.07.075.189.232l.975 1.322-1.368.6-.892-1.295-.575.253v1.686l-1.229.54zm1.229-3.275l.533-.234c.393-.173.639-.498.639-.897 0-.378-.14-.54-.758-.269l-.414.182v1.218z" transform="rotate(-6 545.723 -997.15)"/>
                            </g>
                        </g>
                        <path fill="#7D5D43" opacity=".238" style="mix-blend-mode:multiply" d="M138.795 15.26L186.295 44.083 99.777 93.253 81.117 37.301z" filter="url(#ky9aipfu6i)" mask="url(#xax67b2bjd)"/>
                    </g>
                    <path fill="#E6BF8F" d="M75.46 72.206L1.626 37.172C.242 36.515-.347 34.86.31 33.475c.055-.118.12-.232.192-.34l21.11-31.94 80.826 35.95-21.699 33.56c-1.134 1.754-3.393 2.396-5.28 1.5z" transform="translate(-636 -155) translate(20 18) translate(616 137.55)"/>
                    <g transform="translate(-636 -155) translate(20 18) translate(616 137.55)">
                        <use fill="#EDC89B" xlink:href="#2yeyi3l5ij"/>
                        <use fill="#DCB687" xlink:href="#2yeyi3l5ij"/>
                    </g>
                    <path fill="#5F4A3C" d="M151.356 107.22v1.337c-2.06 1.076-3.074 2.272-4.148 3.54-1.178 1.389-2.395 2.826-4.818 4.09l-4.817.94-.268-.035c-.982-.125-1.991-.159-3.88.828-2.06 1.075-3.074 2.272-4.147 3.539-1.177 1.39-2.395 2.826-4.817 4.09-2.236 1.168-3.445 1.117-4.544.977l-.273-.036-.268-.036c-.982-.125-1.99-.159-3.879.827v-1.336c2.236-1.168 3.445-1.117 4.544-.977l.273.037.268.035c.981.125 1.99.159 3.879-.827 2.06-1.076 3.074-2.273 4.147-3.54 1.178-1.389 2.395-2.825 4.817-4.09 2.423-1.265 3.64-1.1 4.818-.94l.267.035c.982.125 1.992.159 3.88-.827 2.06-1.076 3.075-2.273 4.148-3.54 1.178-1.39 2.395-2.826 4.818-4.091zm0-3.821v1.337c-2.06 1.076-3.074 2.272-4.148 3.54-1.178 1.388-2.395 2.826-4.818 4.09l-4.817.94-.268-.035c-.982-.125-1.991-.159-3.88.828-2.06 1.075-3.074 2.272-4.147 3.539-1.177 1.389-2.395 2.826-4.817 4.09-2.236 1.168-3.445 1.117-4.544.977l-.273-.037-.268-.035c-.982-.125-1.99-.159-3.879.827v-1.337c2.236-1.167 3.445-1.116 4.544-.976l.273.037.268.035c.981.125 1.99.158 3.879-.828 2.06-1.075 3.074-2.272 4.147-3.539 1.178-1.389 2.395-2.826 4.817-4.09 2.423-1.266 3.64-1.1 4.818-.94l.267.035c.982.125 1.992.158 3.88-.828 2.06-1.076 3.075-2.272 4.148-3.539 1.178-1.39 2.395-2.827 4.818-4.091zm0-3.822v1.338c-2.06 1.075-3.074 2.272-4.148 3.539-1.178 1.389-2.395 2.826-4.818 4.091l-4.817.94-.134-.018-.268-.034c-.941-.11-1.943-.097-3.746.844-2.06 1.076-3.074 2.272-4.147 3.54-1.177 1.388-2.395 2.826-4.817 4.09-2.236 1.168-3.445 1.116-4.544.976l-.273-.036-.134-.018-.268-.034c-.941-.11-1.943-.097-3.745.844v-1.337c2.236-1.168 3.445-1.117 4.544-.976l.273.036c1.073.146 2.087.284 4.147-.792s3.074-2.272 4.147-3.54c1.178-1.388 2.395-2.825 4.817-4.09 2.423-1.265 3.64-1.1 4.818-.94l.134.018.268.034c.94.11 1.943.097 3.745-.844 2.06-1.076 3.075-2.273 4.148-3.54 1.178-1.389 2.395-2.826 4.818-4.09zm0-3.82v1.336c-2.06 1.076-3.074 2.273-4.148 3.54-1.178 1.39-2.395 2.826-4.818 4.09l-4.817.94-.134-.017-.268-.034c-.941-.11-1.943-.097-3.746.844-2.06 1.076-3.074 2.272-4.147 3.54-1.177 1.389-2.395 2.825-4.817 4.09-2.422 1.265-3.64 1.1-4.817.94l-.134-.018-.268-.034c-.941-.11-1.943-.098-3.745.844v-1.338c2.236-1.167 3.445-1.116 4.544-.975l.273.036c1.073.146 2.087.284 4.147-.792s3.074-2.272 4.147-3.539c1.178-1.39 2.395-2.826 4.817-4.091 2.423-1.265 3.64-1.1 4.818-.94l.134.018.268.034c.94.11 1.943.097 3.745-.844 2.06-1.076 3.075-2.273 4.148-3.54 1.178-1.389 2.395-2.826 4.818-4.09z" opacity=".624" transform="translate(-636 -155) translate(20 18) translate(616 137.55)"/>
                </g>
            </g>
        </g>
    </g>
</svg>
