<?xml version="1.0" encoding="utf-8"?>
<svg xmlns="http://www.w3.org/2000/svg" xmlns:xlink="http://www.w3.org/1999/xlink" style="margin: auto; background: none; display: block; shape-rendering: auto;" width="200px" height="200px" viewBox="0 0 100 100" preserveAspectRatio="xMidYMid">
<g transform="rotate(0 50 50)">
  <rect x="46.5" y="20" rx="2.7600000000000002" ry="2.7600000000000002" width="7" height="12" fill="#777777">
    <animate attributeName="opacity" values="1;0" keyTimes="0;1" dur="1.6949152542372883s" begin="-1.5536723163841808s" repeatCount="indefinite"></animate>
  </rect>
</g><g transform="rotate(30 50 50)">
  <rect x="46.5" y="20" rx="2.7600000000000002" ry="2.7600000000000002" width="7" height="12" fill="#777777">
    <animate attributeName="opacity" values="1;0" keyTimes="0;1" dur="1.6949152542372883s" begin="-1.4124293785310735s" repeatCount="indefinite"></animate>
  </rect>
</g><g transform="rotate(60 50 50)">
  <rect x="46.5" y="20" rx="2.7600000000000002" ry="2.7600000000000002" width="7" height="12" fill="#777777">
    <animate attributeName="opacity" values="1;0" keyTimes="0;1" dur="1.6949152542372883s" begin="-1.271186440677966s" repeatCount="indefinite"></animate>
  </rect>
</g><g transform="rotate(90 50 50)">
  <rect x="46.5" y="20" rx="2.7600000000000002" ry="2.7600000000000002" width="7" height="12" fill="#777777">
    <animate attributeName="opacity" values="1;0" keyTimes="0;1" dur="1.6949152542372883s" begin="-1.1299435028248588s" repeatCount="indefinite"></animate>
  </rect>
</g><g transform="rotate(120 50 50)">
  <rect x="46.5" y="20" rx="2.7600000000000002" ry="2.7600000000000002" width="7" height="12" fill="#777777">
    <animate attributeName="opacity" values="1;0" keyTimes="0;1" dur="1.6949152542372883s" begin="-0.9887005649717514s" repeatCount="indefinite"></animate>
  </rect>
</g><g transform="rotate(150 50 50)">
  <rect x="46.5" y="20" rx="2.7600000000000002" ry="2.7600000000000002" width="7" height="12" fill="#777777">
    <animate attributeName="opacity" values="1;0" keyTimes="0;1" dur="1.6949152542372883s" begin="-0.847457627118644s" repeatCount="indefinite"></animate>
  </rect>
</g><g transform="rotate(180 50 50)">
  <rect x="46.5" y="20" rx="2.7600000000000002" ry="2.7600000000000002" width="7" height="12" fill="#777777">
    <animate attributeName="opacity" values="1;0" keyTimes="0;1" dur="1.6949152542372883s" begin="-0.7062146892655368s" repeatCount="indefinite"></animate>
  </rect>
</g><g transform="rotate(210 50 50)">
  <rect x="46.5" y="20" rx="2.7600000000000002" ry="2.7600000000000002" width="7" height="12" fill="#777777">
    <animate attributeName="opacity" values="1;0" keyTimes="0;1" dur="1.6949152542372883s" begin="-0.5649717514124294s" repeatCount="indefinite"></animate>
  </rect>
</g><g transform="rotate(240 50 50)">
  <rect x="46.5" y="20" rx="2.7600000000000002" ry="2.7600000000000002" width="7" height="12" fill="#777777">
    <animate attributeName="opacity" values="1;0" keyTimes="0;1" dur="1.6949152542372883s" begin="-0.423728813559322s" repeatCount="indefinite"></animate>
  </rect>
</g><g transform="rotate(270 50 50)">
  <rect x="46.5" y="20" rx="2.7600000000000002" ry="2.7600000000000002" width="7" height="12" fill="#777777">
    <animate attributeName="opacity" values="1;0" keyTimes="0;1" dur="1.6949152542372883s" begin="-0.2824858757062147s" repeatCount="indefinite"></animate>
  </rect>
</g><g transform="rotate(300 50 50)">
  <rect x="46.5" y="20" rx="2.7600000000000002" ry="2.7600000000000002" width="7" height="12" fill="#777777">
    <animate attributeName="opacity" values="1;0" keyTimes="0;1" dur="1.6949152542372883s" begin="-0.14124293785310735s" repeatCount="indefinite"></animate>
  </rect>
</g><g transform="rotate(330 50 50)">
  <rect x="46.5" y="20" rx="2.7600000000000002" ry="2.7600000000000002" width="7" height="12" fill="#777777">
    <animate attributeName="opacity" values="1;0" keyTimes="0;1" dur="1.6949152542372883s" begin="0s" repeatCount="indefinite"></animate>
  </rect>
</g>
<!-- [ldio] generated by https://loading.io/ --></svg>