<svg
    height="326"
    viewBox="0 0 319 326"
    width="319"
    xmlns="http://www.w3.org/2000/svg"
><path
        d="m95.2731026 259.833992-.477-.47c-55.089-56.159-54.681-146.788.955-202.443 26.6820004-26.718 62.8250004-41.644 100.4480004-41.468 37.611.176 73.625 15.431 100.063 42.396l.466.481c1.246 1.269 1.246 3.324 0 4.592-.606.599-1.422.951-2.272.951-.863 0-1.678-.352-2.284-.951l-.932-.939c-23.105-23.336-54.459-36.454-87.165-36.454s-64.072 13.118-87.165 36.454c-48.1440004 48.643-48.1440004 127.375 0 176.019 7.294 7.375 15.007 14.351 23.128 20.904.536.458 1.119.881 1.736 1.245.606.376 1.317.564 2.028.552.722-.07 1.41-.329 1.98-.775.571-.434 1.096-.916 1.585-1.444l34.663-34.962c.781-.787 1.329-1.421 1.655-1.879.524-.67.815-1.492.827-2.349-.081-.846-.443-1.633-1.014-2.255-.559-.622-1.165-1.21-1.817-1.738-7.632-6.495-14.984-13.306-22.057-20.435-34.896-35.267-34.896-92.355 0-127.622 16.755-16.911 39.487-26.424 63.21-26.424 23.711 0 46.454 9.513 63.198 26.424l.92.939c1.258 1.269 1.258 3.324 0 4.604-.594.599-1.421.951-2.272.951s-1.678-.352-2.272-.951l-.932-.939c-13.411-13.541-31.611-21.163-50.603-21.163s-37.191 7.622-50.602 21.163c-27.952 28.244-27.952 73.952 0 102.196 7.236 7.317 14.716 14.387 22.429 21.222.722.645 1.293 1.092 1.736 1.362.723.458 1.433.681 2.086.646.641 0 1.34-.259 2.074-.752.594-.458 1.142-.963 1.654-1.515l28.686-28.949c.583-.564 1.119-1.162 1.596-1.808.502-.646.793-1.433.828-2.255-.047-.822-.373-1.609-.909-2.243-.513-.635-1.072-1.222-1.69-1.762-7.398-6.858-14.657-13.87-21.765-21.045-16.358-16.536-16.358-43.301 0-59.836 7.854-7.927 18.515-12.39 29.63-12.39 11.116 0 21.777 4.463 29.63 12.39 4.241 4.251 8.342 8.62 12.374 13.094 6.362 7.094 17.221 7.622 24.235 1.187 6.688-6.131 7.527-16.407 1.957-23.582-60.284-77.18209999-171.148-90.4529-247.6290004-29.607-76.48040002 60.822-89.6233 172.755-29.362 249.972 10.813 13.869 23.606 26.036 37.973 36.089 1.514 1.045 2.738 1.55 3.693 1.468.944-.082 2.074-.787 3.379-2.102l35.2340004-35.596c.629-.599 1.2-1.245 1.725-1.938.547-.693.839-1.55.827-2.431-.105-.869-.513-1.68-1.142-2.29-.594-.611-1.235-1.175-1.922-1.68-7.854-6.142-15.311-12.777-22.3250004-19.859z"
        fill="#091717"
        transform="translate(-.000103 -.310992)"
    /></svg>
