<svg height="32" viewBox="0 0 32 32" width="32" xmlns="http://www.w3.org/2000/svg"><path d="m15.953 0c8.811 0 15.954 7.143 15.954 15.953 0 8.811-7.143 15.954-15.954 15.954-8.81 0-15.953-7.143-15.953-15.954 0-8.81 7.142-15.953 15.953-15.953m0 7.977c-4.3635178.0228029-7.89893463 3.547457-7.93504123 7.9108851-.0361066 4.363428 3.44049823 7.9461054 7.80304123 8.0411149h.132c2.686 0 .812-3.417 2.686-5.29 1.854-1.854 5.22-.039 5.29-2.603l.001-.083c-.0005522-4.4051849-3.571815-7.976-7.977-7.976"/></svg>